<?xml version="1.0" encoding="UTF-8"?>
<svg id="Layer_1" data-name="Layer 1" xmlns="http://www.w3.org/2000/svg" viewBox="0 0 210.55 55.67">
  <defs>
    <style>
      .cls-1 {
        fill: #231f20;
        font-family: Doyle-Bold, Doyle;
        font-size: 11px;
        font-weight: 700;
      }
    </style>
  </defs>
  <text id="TEXT" class="cls-1" transform="translate(6.1 51.98) rotate(-39.05)"><tspan x="0" y="0">W</tspan></text>
  <text class="cls-1" transform="translate(15.62 44.33) rotate(-36.27)"><tspan x="0" y="0">e</tspan></text>
  <text class="cls-1" transform="translate(20.89 40.47) rotate(-34.72)"><tspan x="0" y="0">l</tspan></text>
  <text class="cls-1" transform="translate(24.23 38.14) rotate(-33.13)"><tspan x="0" y="0">c</tspan></text>
  <text class="cls-1" transform="translate(29.9 34.43) rotate(-31.04)"><tspan x="0" y="0">o</tspan></text>
  <text class="cls-1" transform="translate(36.08 30.63) rotate(-28.12)"><tspan x="0" y="0">m</tspan></text>
  <text class="cls-1" transform="translate(46.37 25.2) rotate(-25.17)"><tspan x="0" y="0">e</tspan></text>
  <text class="cls-1" transform="translate(52.53 22.34) rotate(-23.63)"><tspan x="0" y="0"> </tspan></text>
  <text class="cls-1" transform="translate(54.71 21.37) rotate(-22.32)"><tspan x="0" y="0">t</tspan></text>
  <text class="cls-1" transform="translate(59.24 19.48) rotate(-20.2)"><tspan x="0" y="0">o</tspan></text>
  <text class="cls-1" transform="translate(66.1 17) rotate(-18.43)"><tspan x="0" y="0"> </tspan></text>
  <text class="cls-1" transform="translate(68.35 16.23) rotate(-16.99)"><tspan x="0" y="0">t</tspan></text>
  <text class="cls-1" transform="translate(72.98 14.77) rotate(-14.53)"><tspan x="0" y="0">h</tspan></text>
  <text class="cls-1" transform="translate(80.65 12.79) rotate(-11.56)"><tspan x="0" y="0">e</tspan></text>
  <text class="cls-1" transform="translate(87.3 11.47) rotate(-9.63)"><tspan x="0" y="0"> </tspan></text>
  <text class="cls-1" transform="translate(89.62 11) rotate(-7.16)"><tspan x="0" y="0">G</tspan></text>
  <text class="cls-1" transform="translate(98.66 9.89) rotate(-3.48)"><tspan x="0" y="0">o</tspan></text>
  <text class="cls-1" transform="translate(106.08 9.44) rotate(-.05)"><tspan x="0" y="0">o</tspan></text>
  <text class="cls-1" transform="translate(113.52 9.43) rotate(3.51)"><tspan x="0" y="0">d</tspan></text>
  <text class="cls-1" transform="translate(121.04 9.94) rotate(5.86)"><tspan x="0" y="0"> </tspan></text>
  <text class="cls-1" transform="translate(123.39 10.1) rotate(8.67)"><tspan x="0" y="0">N</tspan></text>
  <text class="cls-1" transform="translate(132.39 11.5) rotate(12.36)"><tspan x="0" y="0">e</tspan></text>
  <text class="cls-1" transform="translate(139.05 12.99) rotate(14.94)"><tspan x="0" y="0">i</tspan></text>
  <text class="cls-1" transform="translate(142.99 14.01) rotate(17.46)"><tspan x="0" y="0">g</tspan></text>
  <text class="cls-1" transform="translate(149.41 16) rotate(20.75)"><tspan x="0" y="0">h</tspan></text>
  <text class="cls-1" transform="translate(156.87 18.84) rotate(24.04)"><tspan x="0" y="0">b</tspan></text>
  <text class="cls-1" transform="translate(163.56 21.83) rotate(27.12)"><tspan x="0" y="0">o</tspan></text>
  <text class="cls-1" transform="translate(170.03 25.16) rotate(29.78)"><tspan x="0" y="0">r</tspan></text>
  <text class="cls-1" transform="translate(175.31 28.21) rotate(31.4)"><tspan x="0" y="0"> </tspan></text>
  <text class="cls-1" transform="translate(177.38 29.42) rotate(33.21)"><tspan x="0" y="0">S</tspan></text>
  <text class="cls-1" transform="translate(183.41 33.36) rotate(35.86)"><tspan x="0" y="0">h</tspan></text>
  <text class="cls-1" transform="translate(189.84 38.02) rotate(38.35)"><tspan x="0" y="0">o</tspan></text>
  <text class="cls-1" transform="translate(195.47 42.46) rotate(40.62)"><tspan x="0" y="0">p</tspan></text>
  <text class="cls-1" transform="translate(201.29 47.49) rotate(42.3)"><tspan x="0" y="0">!</tspan></text>
</svg>