<?xml version="1.0" encoding="UTF-8"?>
<svg id="Layer_2" data-name="Layer 2" xmlns="http://www.w3.org/2000/svg" width="69.65" height="103.84" viewBox="0 0 69.65 103.84">
  <g id="Layer_2-2" data-name="Layer 2">
    <g id="DESIGN_ILLUSTRATION" data-name="DESIGN ILLUSTRATION">
      <g>
        <path d="M36.27,26.3s.03.06.05.08c.09.09.17.08.27-.01.04-.04.06-.08.07-.11-.13.01-.26.03-.39.05" fill="#161514"/>
        <path d="M38.26,26.2c-.03.08,0,.19.08.25s.09.06.18.01c.12-.06.16-.15.12-.23-.13-.01-.25-.02-.38-.03" fill="#161514"/>
        <path d="M34.94,26.54s.08.06.14.06.14-.07.18-.13c-.11.02-.21.05-.32.07" fill="#161514"/>
        <path d="M36.98,26.63c.1.05.13.05.22-.04.1-.1.1-.18,0-.27-.08-.09-.2-.09-.29,0-.11.11-.08.25.05.32" fill="#161514"/>
        <path d="M39.05,26.7c.1,0,.14-.03.19-.12.05-.1,0-.21-.12-.26-.09-.04-.08-.04-.15,0-.09.05-.11.09-.11.19s.09.19.2.19" fill="#161514"/>
        <path d="M35.82,26.75c.1-.1.1-.14,0-.25-.08-.1-.2-.11-.29-.02-.08.08-.08.21,0,.29.09.09.17.08.27-.01" fill="#161514"/>
        <path d="M37.86,26.75c.04-.08,0-.19-.08-.25-.06-.04-.2-.02-.26.03-.03.03-.05.09-.05.14,0,.22.28.28.38.08" fill="#161514"/>
        <path d="M39.49,26.83s.1.07.13.07c.07,0,.2-.15.2-.22,0-.09-.11-.19-.21-.19-.05,0-.11.03-.14.06-.09.09-.08.21.02.29" fill="#161514"/>
        <path d="M34.43,26.67c-.11.03-.22.06-.33.09,0,.03.03.07.06.1.08.08.21.08.29,0,.07-.07.08-.13.04-.2-.02,0-.04.01-.06.02" fill="#161514"/>
        <path d="M36.3,26.99c.08,0,.21-.13.21-.22,0-.07-.15-.2-.22-.2-.04,0-.09.03-.13.06-.13.13-.04.35.14.35" fill="#161514"/>
        <path d="M38.1,26.99c.11.09.16.08.25-.01.1-.1.1-.18,0-.27-.08-.09-.2-.09-.29,0s-.08.21.02.29" fill="#161514"/>
        <path d="M40.21,27.09c.09,0,.22-.1.22-.17,0-.09-.04-.15-.13-.2-.11-.06-.1-.06-.2.02-.16.12-.08.35.12.35" fill="#161514"/>
        <path d="M34.86,27.15c.1,0,.21-.1.21-.19,0-.07-.14-.22-.2-.22-.03,0-.08.03-.13.07-.05.04-.09.1-.09.14,0,.1.11.21.21.21" fill="#161514"/>
        <path d="M36.99,27.13c.09-.11.08-.18,0-.26-.09-.09-.2-.09-.28,0-.08.08-.08.2,0,.29.1.09.2.08.28-.02" fill="#161514"/>
        <path d="M38.71,27.21c.11.09.16.08.25-.01.1-.1.1-.18,0-.27-.08-.09-.2-.09-.29,0s-.08.21.02.29" fill="#161514"/>
        <path d="M33.55,26.93c-.08.03-.16.05-.24.08-.03.04-.05.08-.05.11,0,.09.11.2.21.2s.21-.1.21-.19c0-.05-.07-.14-.13-.19" fill="#161514"/>
        <path d="M40.98,27.24c.09-.1.08-.17-.02-.27-.1-.09-.13-.09-.22-.04s-.11.09-.11.19c0,.18.23.25.35.12" fill="#161514"/>
        <path d="M35.61,27.3c.09-.09.08-.17,0-.27-.1-.1-.17-.1-.27-.01-.09.08-.09.2,0,.29.08.08.21.08.29,0" fill="#161514"/>
        <path d="M37.59,27.36c.1-.1.1-.18,0-.27-.08-.09-.2-.09-.29,0-.08.08-.08.21,0,.29.09.09.17.08.27-.01" fill="#161514"/>
        <path d="M39.34,27.45c.07.05.1.06.16.02.16-.09.19-.2.09-.31-.08-.09-.23-.09-.3,0-.08.08-.05.22.05.3" fill="#161514"/>
        <path d="M34.23,27.47c.09-.09.08-.17,0-.27s-.14-.1-.25-.01c-.1.08-.11.2-.02.29.08.08.21.08.29,0" fill="#161514"/>
        <path d="M41.38,27.54c.1,0,.21-.1.21-.19,0-.07-.14-.22-.2-.22-.03,0-.08.03-.13.07-.05.04-.09.1-.09.14,0,.1.11.21.21.21" fill="#161514"/>
        <path d="M36.07,27.6c.08,0,.21-.13.21-.21,0-.02-.03-.08-.07-.12-.08-.1-.2-.11-.29-.02-.13.13-.04.35.14.35" fill="#161514"/>
        <path d="M38,27.66c.07,0,.21-.15.21-.22,0-.09-.11-.19-.21-.19-.05,0-.11.03-.14.06-.04.04-.06.09-.06.13,0,.08.14.22.21.22" fill="#161514"/>
        <path d="M32.7,27.7c.1,0,.21-.1.21-.19,0-.08-.14-.22-.21-.22-.03,0-.09.04-.13.08-.04.04-.08.11-.08.14,0,.09.11.2.21.2" fill="#161514"/>
        <path d="M40,27.7c.1,0,.21-.1.21-.19,0-.08-.14-.22-.21-.22-.03,0-.09.04-.13.08-.04.04-.08.11-.08.14,0,.09.11.2.21.2" fill="#161514"/>
        <path d="M34.87,27.64c.05-.1.05-.13-.04-.22-.1-.1-.18-.1-.27-.01-.09.08-.09.2,0,.29.11.11.25.08.32-.05" fill="#161514"/>
        <path d="M42.08,27.39s-.03-.02-.05-.03c-.06-.03-.12-.01-.19.05-.09.08-.09.2,0,.29.08.08.21.08.29,0,.09-.09.08-.17,0-.27,0-.01-.02-.02-.04-.03" fill="#161514"/>
        <path d="M36.5,27.76s.1.07.12.07c.08,0,.21-.14.21-.21,0-.1-.11-.21-.21-.21-.05,0-.11.03-.14.06-.09.09-.08.21.02.29" fill="#161514"/>
        <path d="M31.19,27.8s.1.09.14.09c.07,0,.21-.15.21-.23h0c-.12.05-.23.09-.35.14" fill="#161514"/>
        <path d="M38.61,27.89c.07,0,.21-.15.21-.23,0-.09-.11-.19-.21-.19-.05,0-.11.03-.14.06-.04.04-.06.09-.06.13,0,.08.14.23.21.23" fill="#161514"/>
        <path d="M33.46,27.72c0-.08-.13-.21-.22-.21-.03,0-.08.04-.12.08-.1.1-.1.19,0,.27.13.13.35.04.35-.14" fill="#161514"/>
        <path d="M40.75,27.85c.09-.09.08-.17,0-.27s-.14-.1-.25-.01c-.1.08-.11.2-.02.29.08.08.21.08.29,0" fill="#161514"/>
        <path d="M35.38,27.92c.09-.08.09-.2,0-.28-.09-.09-.19-.09-.27,0-.09.1-.09.19,0,.27.09.09.18.09.27,0" fill="#161514"/>
        <path d="M42.54,27.71s-.06-.04-.09-.07c-.12.13-.03.34.15.34.05,0,.12-.05.16-.11-.07-.06-.14-.12-.22-.17" fill="#161514"/>
        <path d="M37.11,27.98s.1.07.13.07c.07,0,.2-.15.2-.22,0-.09-.11-.19-.21-.19-.05,0-.11.03-.14.06-.09.09-.08.21.02.29" fill="#161514"/>
        <path d="M32.03,28.01c.07-.1.06-.18-.03-.27-.09-.09-.1-.09-.2-.04-.15.08-.19.21-.08.32.09.09.24.08.3,0" fill="#161514"/>
        <path d="M39.21,28.08c.23,0,.3-.26.09-.37-.11-.06-.1-.06-.2.02-.15.12-.08.35.11.35" fill="#161514"/>
        <path d="M34.07,27.94c0-.08-.13-.21-.21-.21-.02,0-.08.03-.12.07-.1.08-.11.2-.02.29.13.13.35.04.35-.14" fill="#161514"/>
        <path d="M41.36,27.94c0-.08-.13-.21-.22-.21-.02,0-.08.04-.12.08-.1.1-.1.19,0,.27.13.13.35.04.35-.14" fill="#161514"/>
        <path d="M35.97,28.14c.1-.08.11-.18.02-.28-.08-.09-.2-.09-.29,0-.08.08-.08.2,0,.28.09.09.15.09.26,0" fill="#161514"/>
        <path d="M30.33,28.16c.05.06.11.11.15.11.08,0,.22-.13.22-.21,0-.02,0-.04-.01-.05-.12.05-.24.1-.35.16" fill="#161514"/>
        <path d="M37.72,28.21s.1.07.13.07c.07,0,.2-.15.2-.22,0-.09-.11-.19-.21-.19-.05,0-.11.03-.14.06-.09.09-.08.21.02.29" fill="#161514"/>
        <path d="M32.48,28.31c.1,0,.21-.1.21-.19,0-.08-.14-.22-.21-.22-.03,0-.09.04-.13.08-.04.04-.08.11-.08.14,0,.09.11.2.21.2" fill="#161514"/>
        <path d="M39.77,28.31c.1,0,.21-.1.21-.19,0-.08-.14-.22-.21-.22-.03,0-.09.04-.13.08-.04.04-.08.11-.08.14,0,.09.11.2.21.2" fill="#161514"/>
        <path d="M34.61,28.3c.09-.09.08-.19,0-.28-.09-.09-.18-.09-.27,0-.09.08-.09.2,0,.29.08.08.2.08.29,0" fill="#161514"/>
        <path d="M41.9,28.3c.09-.09.08-.19,0-.28-.1-.09-.19-.09-.27,0-.09.09-.09.2,0,.28.08.08.2.08.29,0" fill="#161514"/>
        <path d="M31.09,28.44c.08,0,.22-.13.22-.21,0-.1-.11-.21-.21-.21-.05,0-.11.03-.14.06-.04.04-.06.09-.06.13,0,.07.14.22.2.22" fill="#161514"/>
        <path d="M36.49,28.4c.14-.07.16-.21.05-.32-.08-.08-.21-.08-.29,0-.09.09-.08.17,0,.27.09.09.12.09.22.04" fill="#161514"/>
        <path d="M33.07,28.47c.23,0,.3-.26.1-.37-.07-.04-.1-.04-.16,0-.19.09-.14.38.06.38" fill="#161514"/>
        <path d="M38.33,28.45c.12.03.19,0,.24-.09.04-.08.04-.1,0-.18-.06-.11-.16-.14-.27-.09-.16.08-.14.31.03.35" fill="#161514"/>
        <path d="M35.16,28.47c.11-.11.08-.25-.05-.32-.1-.05-.13-.05-.22.04-.1.1-.1.18,0,.27.08.09.2.09.29,0" fill="#161514"/>
        <path d="M40.38,28.53c.1,0,.21-.1.21-.19,0-.07-.14-.22-.2-.22-.03,0-.08.03-.13.07-.05.04-.09.1-.09.14,0,.1.11.21.21.21" fill="#161514"/>
        <path d="M42.52,28.46c.09-.09.08-.17,0-.27s-.14-.1-.25-.01c-.1.08-.11.2-.02.29.08.08.21.08.29,0" fill="#161514"/>
        <path d="M29.6,28.54c.09.07.17.06.25-.02.05-.05.07-.1.07-.15-.11.06-.21.11-.32.18" fill="#161514"/>
        <path d="M37.15,28.53c.09-.08.09-.2,0-.29-.08-.08-.2-.08-.29,0-.09.09-.08.19,0,.28.09.09.18.09.27,0" fill="#161514"/>
        <path d="M31.84,28.51c.05-.21-.2-.35-.34-.19-.07.08-.08.13-.03.22.09.16.33.14.37-.03" fill="#161514"/>
        <path d="M39,28.66c.07,0,.21-.15.21-.23,0-.09-.11-.19-.21-.19-.05,0-.11.03-.14.06-.04.04-.06.09-.06.13,0,.08.14.23.21.23" fill="#161514"/>
        <path d="M33.79,28.62c.07-.11.06-.2-.03-.28-.11-.09-.16-.08-.25.01-.1.1-.1.19-.02.27.09.09.24.08.3,0" fill="#161514"/>
        <path d="M40.99,28.69c.1,0,.21-.1.21-.19,0-.07-.14-.22-.2-.22-.03,0-.08.03-.13.07-.05.04-.09.1-.09.14,0,.1.11.21.21.21" fill="#161514"/>
        <path d="M35.77,28.69c.08-.08.08-.2,0-.28-.09-.09-.15-.09-.26,0-.1.08-.11.18-.02.28.08.09.2.09.29,0" fill="#161514"/>
        <path d="M43.06,28.69c.08-.08.08-.21,0-.29-.09-.09-.17-.08-.27.01-.1.1-.1.18,0,.27.08.09.2.09.29,0" fill="#161514"/>
        <path d="M30.27,28.82c.09,0,.2-.12.2-.21,0-.15-.19-.26-.31-.18-.04.03-.11.15-.11.2,0,.06.15.19.22.19" fill="#161514"/>
        <path d="M37.5,28.76s.1.07.12.07c.08,0,.21-.13.21-.21,0-.1-.11-.21-.21-.21-.05,0-.11.03-.14.06-.09.09-.08.21.02.29" fill="#161514"/>
        <path d="M32.18,28.84c.09.04.1.04.17,0,.1-.07.13-.19.06-.29-.06-.1-.22-.11-.31-.02-.11.11-.08.23.07.31" fill="#161514"/>
        <path d="M39.48,28.84c.09.05.1.05.18-.01.1-.08.12-.18.05-.28-.06-.1-.22-.1-.31-.01-.11.11-.08.23.07.31" fill="#161514"/>
        <path d="M34.45,28.71c0-.08-.13-.21-.22-.21-.03,0-.08.04-.12.08-.1.1-.1.19,0,.27.13.13.35.04.35-.14" fill="#161514"/>
        <path d="M41.68,28.85c.09-.09.08-.21-.02-.29-.11-.09-.16-.08-.25.01-.1.1-.1.18,0,.27.08.09.2.09.29,0" fill="#161514"/>
        <path d="M36.38,28.91c.09-.1.09-.19,0-.27-.09-.09-.2-.09-.28,0-.08.08-.08.2,0,.28.1.09.19.09.27,0" fill="#161514"/>
        <path d="M43.7,28.74s-.03-.03-.03-.04c-.03-.03-.06-.06-.09-.09-.02-.02-.04-.03-.05-.05-.05,0-.09.03-.13.07-.09.1-.09.19,0,.27.1.09.19.09.27,0,.04-.04.06-.09.07-.13,0-.01-.02-.02-.03-.03" fill="#161514"/>
        <path d="M31,28.98c.1-.08.11-.2.02-.29-.08-.08-.21-.08-.29,0-.09.09-.08.17.01.27.1.1.14.1.25.01" fill="#161514"/>
        <path d="M38.25,29.01c.14-.07.16-.21.05-.32-.08-.08-.21-.08-.29,0-.09.09-.08.17,0,.27.09.09.12.09.22.04" fill="#161514"/>
        <path d="M32.86,29.08c.1,0,.21-.1.21-.19,0-.08-.14-.22-.21-.22-.03,0-.09.04-.13.08-.04.04-.08.11-.08.14,0,.09.11.2.21.2" fill="#161514"/>
        <path d="M40.16,29.08c.1,0,.21-.1.21-.19,0-.08-.14-.22-.21-.22-.03,0-.09.04-.13.08-.04.04-.08.11-.08.14,0,.09.11.2.21.2" fill="#161514"/>
        <path d="M34.94,29.08c.08-.08.08-.21,0-.29-.09-.09-.17-.08-.27.01-.1.1-.1.14,0,.25.08.1.2.11.29.02" fill="#161514"/>
        <path d="M42.36,28.94c0-.08-.13-.21-.21-.21-.02,0-.08.03-.12.07-.1.08-.11.2-.02.29.13.13.35.04.35-.14" fill="#161514"/>
        <path d="M29.63,29.14c.09-.08.09-.2,0-.29-.08-.08-.21-.08-.29,0-.09.09-.08.17.01.27.1.1.17.1.27.01" fill="#161514"/>
        <path d="M36.79,29.21c.09,0,.2-.12.2-.21,0-.15-.19-.26-.31-.18-.04.03-.11.15-.11.2,0,.06.15.19.22.19" fill="#161514"/>
        <path d="M31.48,29.27c.07,0,.21-.15.21-.23,0-.09-.11-.19-.21-.19-.05,0-.11.03-.14.06-.04.04-.06.09-.06.13,0,.08.14.23.21.23" fill="#161514"/>
        <path d="M38.78,29.27c.07,0,.21-.15.21-.23,0-.09-.11-.19-.21-.19-.05,0-.11.03-.14.06-.04.04-.06.09-.06.13,0,.08.14.23.21.23" fill="#161514"/>
        <path d="M33.51,29.28c.14-.07.14-.29,0-.35-.1-.05-.11-.05-.18,0-.23.13-.05.47.19.36" fill="#161514"/>
        <path d="M40.77,29.3c.1,0,.21-.1.21-.19,0-.08-.14-.22-.21-.22-.03,0-.09.04-.13.08-.04.04-.08.11-.08.14,0,.09.11.2.21.2" fill="#161514"/>
        <path d="M35.41,29.37c.1,0,.21-.11.21-.21s-.11-.21-.21-.21c-.05,0-.1.03-.14.09-.04.05-.07.1-.07.12,0,.08.13.21.21.21" fill="#161514"/>
        <path d="M42.9,29.29c.09-.1.09-.19,0-.27-.09-.09-.18-.09-.27,0-.09.08-.09.2,0,.29.08.08.2.08.28,0" fill="#161514"/>
        <path d="M29.96,29.4c.13.07.29-.04.29-.19,0-.17-.22-.26-.33-.15s-.09.27.05.34" fill="#161514"/>
        <path d="M37.39,29.43c.08,0,.22-.13.22-.21,0-.1-.11-.21-.21-.21-.05,0-.11.03-.14.06-.04.04-.06.09-.06.13,0,.07.14.22.2.22" fill="#161514"/>
        <path d="M32.04,29.46c.19,0,.27-.23.11-.35q-.1-.08-.19-.03c-.08.05-.14.12-.14.19,0,.08.12.19.22.19" fill="#161514"/>
        <path d="M39.39,29.46c.1,0,.21-.1.21-.19,0-.08-.14-.22-.21-.22-.03,0-.09.04-.13.08-.04.04-.08.11-.08.14,0,.09.11.2.21.2" fill="#161514"/>
        <path d="M34.16,29.46c.08-.08.08-.21,0-.29-.09-.09-.17-.09-.27.01-.1.1-.1.18,0,.27.08.09.2.09.29,0" fill="#161514"/>
        <path d="M41.46,29.46c.08-.08.08-.21,0-.29-.09-.09-.17-.08-.27.01-.09.09-.09.12-.04.22.07.14.21.16.32.05" fill="#161514"/>
        <path d="M28.68,29.18c-.07.06-.15.12-.22.18-.01.05.01.09.07.15.1.1.19.1.27.02.12-.12.04-.33-.12-.35" fill="#161514"/>
        <path d="M36.15,29.53c.09-.08.09-.2,0-.29-.08-.08-.21-.08-.29,0-.09.09-.08.17,0,.27.1.1.18.1.27.01" fill="#161514"/>
        <path d="M43.44,29.53c.09-.08.09-.2,0-.29-.08-.08-.21-.08-.29,0-.09.09-.08.17,0,.27s.18.1.27.01" fill="#161514"/>
        <path d="M30.74,29.62c.09-.05.12-.09.12-.19,0-.18-.23-.25-.35-.12-.09.09-.08.18.02.27s.12.09.22.04" fill="#161514"/>
        <path d="M38.15,29.43c0-.14-.19-.25-.31-.16-.08.05-.12.17-.08.25.11.2.38.14.39-.08" fill="#161514"/>
        <path d="M32.78,29.62c.09-.09.08-.21-.02-.29-.11-.09-.16-.08-.25.01-.1.1-.1.18,0,.27.08.09.2.09.29,0" fill="#161514"/>
        <path d="M40.08,29.62c.11-.11.08-.25-.05-.32-.1-.05-.13-.05-.22.04-.1.1-.1.18,0,.27.08.09.2.09.29,0" fill="#161514"/>
        <path d="M34.78,29.69c.08-.08.08-.2,0-.29-.1-.09-.2-.08-.28.02-.09.11-.08.18,0,.26.09.09.2.09.28,0" fill="#161514"/>
        <path d="M42.07,29.69c.08-.08.08-.21,0-.29-.09-.09-.17-.08-.27.01-.1.1-.1.14,0,.25.08.1.2.11.29.02" fill="#161514"/>
        <path d="M29.27,29.82c.09,0,.2-.12.2-.21,0-.15-.19-.26-.31-.18-.04.03-.11.15-.11.2,0,.06.15.19.22.19" fill="#161514"/>
        <path d="M36.57,29.82c.09,0,.2-.12.2-.21,0-.15-.19-.26-.31-.18-.04.03-.11.15-.11.2,0,.06.15.19.22.19" fill="#161514"/>
        <path d="M43.91,29.82c.08,0,.22-.13.22-.21,0-.1-.11-.21-.21-.21-.04,0-.11.03-.14.06-.04.04-.06.09-.06.13,0,.07.14.23.2.23" fill="#161514"/>
        <path d="M31.27,29.85c.19,0,.27-.23.11-.35q-.1-.08-.19-.03c-.09.05-.14.13-.14.2,0,.09.12.19.22.19" fill="#161514"/>
        <path d="M38.56,29.85c.19,0,.27-.23.11-.35q-.1-.08-.19-.03c-.09.05-.14.13-.14.2,0,.09.12.19.22.19" fill="#161514"/>
        <path d="M33.18,29.91c.2,0,.28-.22.14-.35-.09-.09-.17-.08-.27.01-.04.04-.08.1-.08.13,0,.08.13.22.21.22" fill="#161514"/>
        <path d="M40.69,29.85c.11-.11.08-.25-.05-.32-.1-.05-.13-.05-.22.04-.1.1-.1.18,0,.27.08.09.2.09.29,0" fill="#161514"/>
        <path d="M30.01,29.91c.09-.08.09-.2,0-.29s-.21-.08-.29.02c-.09.11-.08.16.01.25.1.1.18.1.27.01" fill="#161514"/>
        <path d="M35.32,29.91c.13-.13.03-.35-.14-.35-.04,0-.1.04-.14.08-.09.11-.08.16,0,.25.1.1.19.1.27.02" fill="#161514"/>
        <path d="M42.67,29.91c.09-.08.09-.2,0-.29-.08-.08-.2-.08-.29,0-.09.09-.08.19,0,.28.09.09.18.09.27,0" fill="#161514"/>
        <path d="M31.89,30.01c.1-.05.12-.09.12-.19,0-.14-.19-.25-.31-.16-.02.01-.05.06-.07.09-.08.15.11.34.26.26" fill="#161514"/>
        <path d="M37.37,29.89c.05-.21-.2-.35-.34-.19-.07.08-.08.13-.03.22.09.16.33.14.37-.03" fill="#161514"/>
        <path d="M44.39,30.01c.13.07.29-.04.29-.19,0-.17-.22-.26-.33-.15s-.09.27.05.34" fill="#161514"/>
        <path d="M33.81,30.07c.1,0,.19-.09.19-.2,0-.09-.03-.14-.12-.18-.1-.05-.12-.05-.22.05-.09.09-.1.11-.05.21.05.09.09.12.19.12" fill="#161514"/>
        <path d="M39.37,29.87c0-.08-.13-.21-.22-.21-.02,0-.08.04-.12.08-.1.1-.1.19,0,.27.13.13.35.04.35-.14" fill="#161514"/>
        <path d="M28.64,29.95c0-.16-.14-.26-.28-.2-.02,0-.06.06-.09.11-.04.09-.04.1,0,.17.11.17.37.11.37-.08" fill="#161514"/>
        <path d="M35.93,30.07c.08-.08.08-.21,0-.29-.09-.09-.17-.08-.27.01-.1.1-.1.14,0,.25.08.1.2.11.29.02" fill="#161514"/>
        <path d="M41.3,30.07c.08-.08.08-.2,0-.28-.09-.09-.15-.09-.26,0-.1.08-.11.18-.02.28.08.09.2.09.29,0" fill="#161514"/>
        <path d="M43.23,30.07c.08-.08.08-.21,0-.29-.09-.09-.17-.08-.27.01-.1.1-.1.14,0,.25.08.1.2.11.29.02" fill="#161514"/>
        <path d="M30.56,30.14c.09-.09.09-.24,0-.3-.11-.07-.2-.06-.28.03-.09.11-.08.16.01.25.1.1.18.1.27.02" fill="#161514"/>
        <path d="M37.87,30.17c.14-.07.16-.21.05-.32-.08-.08-.21-.08-.29,0-.09.09-.08.17,0,.27.09.09.12.09.22.04" fill="#161514"/>
        <path d="M32.62,30.04c0-.14-.19-.25-.31-.16-.08.05-.12.17-.08.25.11.2.38.14.39-.08" fill="#161514"/>
        <path d="M39.92,30.04c0-.14-.19-.25-.31-.16-.08.05-.11.16-.07.24.1.21.38.15.38-.08" fill="#161514"/>
        <path d="M34.55,30.23c.11-.11.08-.25-.05-.32-.1-.05-.13-.05-.22.04-.1.1-.1.18,0,.27.08.09.2.09.29,0" fill="#161514"/>
        <path d="M41.8,30.27c.14-.07.14-.29,0-.35-.1-.05-.11-.05-.18,0-.23.13-.05.47.19.36" fill="#161514"/>
        <path d="M29.06,30.36c.09,0,.19-.11.19-.21s-.11-.21-.2-.21c-.03,0-.1.04-.14.08s-.08.1-.08.13c0,.07.15.21.23.21" fill="#161514"/>
        <path d="M36.35,30.36c.09,0,.19-.11.19-.21s-.11-.21-.2-.21c-.03,0-.1.04-.14.08-.04.04-.08.1-.08.13,0,.07.15.21.23.21" fill="#161514"/>
        <path d="M43.69,30.36c.1,0,.21-.11.21-.21s-.11-.21-.21-.21c-.05,0-.1.03-.14.09-.04.05-.07.1-.07.12,0,.08.13.21.21.21" fill="#161514"/>
        <path d="M30.96,30.4c.13.07.29-.04.29-.19,0-.17-.22-.26-.33-.15s-.09.27.05.34" fill="#161514"/>
        <path d="M38.41,30.39c.1-.05.12-.09.12-.19,0-.16-.22-.25-.33-.14-.08.08-.09.17-.04.25.07.1.15.13.25.08" fill="#161514"/>
        <path d="M33.04,30.46c.19,0,.27-.23.11-.35q-.1-.08-.19-.03c-.09.05-.14.12-.14.19,0,.08.13.19.22.19" fill="#161514"/>
        <path d="M40.53,30.27c0-.1-.03-.14-.12-.19-.05-.03-.11-.03-.16,0-.15.08-.18.2-.08.31.13.14.35.06.35-.12" fill="#161514"/>
        <path d="M27.67,30.11h-.03c-.06.06-.13.13-.19.2,0,.08.13.21.21.21.1,0,.21-.11.21-.21s-.11-.21-.2-.21" fill="#161514"/>
        <path d="M35.09,30.47c.09-.06.09-.22,0-.3-.09-.09-.18-.08-.27.02-.1.1-.1.14,0,.25.07.1.17.11.28.03" fill="#161514"/>
        <path d="M42.45,30.46c.08-.08.08-.21,0-.29-.09-.09-.17-.08-.27.01-.09.09-.09.12-.04.22.07.14.21.16.32.05" fill="#161514"/>
        <path d="M29.79,30.52c.09-.08.09-.2,0-.29s-.21-.08-.29.02c-.09.11-.08.16.01.25.1.1.18.1.27.01" fill="#161514"/>
        <path d="M37.09,30.52c.13-.13.03-.35-.14-.35-.04,0-.1.04-.14.08-.09.11-.08.16,0,.25.1.1.19.1.27.02" fill="#161514"/>
        <path d="M44.44,30.52c.09-.08.09-.2,0-.29-.08-.08-.21-.08-.29,0-.09.09-.08.17,0,.27.1.1.18.1.27.01" fill="#161514"/>
        <path d="M31.76,30.54c.04-.06.03-.2-.03-.26-.05-.05-.2-.07-.26-.03-.08.05-.11.16-.07.24.07.15.27.17.36.04" fill="#161514"/>
        <path d="M38.86,30.61c.14.07.28-.01.29-.18,0-.18-.23-.25-.35-.12-.11.11-.08.22.07.3" fill="#161514"/>
        <path d="M33.66,30.67c.14-.04.14-.3,0-.37-.1-.04-.11-.04-.18,0-.21.16-.08.43.18.36" fill="#161514"/>
        <path d="M41.07,30.62c.11-.11.08-.25-.05-.32-.1-.05-.13-.05-.22.04-.1.1-.1.18,0,.27.08.09.2.09.29,0" fill="#161514"/>
        <path d="M28.29,30.75c.09,0,.19-.11.19-.21s-.11-.21-.2-.21c-.03,0-.1.04-.14.08s-.08.1-.08.13c0,.07.15.21.23.21" fill="#161514"/>
        <path d="M35.58,30.75c.09,0,.19-.11.19-.21s-.11-.21-.2-.21c-.03,0-.1.04-.14.08-.04.04-.08.1-.08.13,0,.07.15.21.23.21" fill="#161514"/>
        <path d="M42.87,30.75c.09,0,.19-.11.19-.21s-.11-.21-.2-.21c-.03,0-.1.04-.14.08-.04.04-.08.1-.08.13,0,.07.15.21.22.21" fill="#161514"/>
        <path d="M30.11,30.77c.18.14.4-.17.23-.32-.08-.07-.21-.07-.27,0-.1.12-.09.22.03.32" fill="#161514"/>
        <path d="M37.48,30.78c.12.06.29-.04.29-.18,0-.16-.22-.27-.33-.16s-.09.27.05.34" fill="#161514"/>
        <path d="M44.77,30.78c.12.06.29-.04.29-.18,0-.16-.22-.27-.33-.16s-.09.27.05.34" fill="#161514"/>
        <path d="M52.01,30.63c.03.08.14.18.19.18.07,0,.17-.08.2-.16-.13-.01-.26-.02-.39-.02" fill="#161514"/>
        <path d="M32.13,30.83c.19.05.3-.07.25-.26,0-.06-.15-.16-.19-.15,0,0-.04.02-.07.04-.16.08-.15.33,0,.37" fill="#161514"/>
        <path d="M39.71,30.77c.07-.11.06-.21-.03-.28q-.1-.08-.19-.03c-.15.08-.19.21-.08.32.09.09.24.08.3,0" fill="#161514"/>
        <path d="M34.33,30.84c.08-.08.08-.21,0-.29-.09-.09-.17-.08-.27.01-.1.1-.1.14,0,.25.08.1.2.11.29.02" fill="#161514"/>
        <path d="M41.47,30.91c.2,0,.28-.22.14-.35-.09-.09-.17-.08-.27.01-.04.04-.08.1-.08.13,0,.08.13.22.21.22" fill="#161514"/>
        <path d="M48.65,30.78s.02.04.04.05c.08.09.2.09.29,0,.03-.03.05-.06.06-.09-.13,0-.26.02-.38.03" fill="#161514"/>
        <path d="M28.96,30.91c.17-.17-.03-.44-.23-.32-.1.06-.13.15-.08.25.07.14.2.17.31.07" fill="#161514"/>
        <path d="M36.31,30.91c.09-.08.09-.2,0-.29s-.21-.08-.29.02c-.09.11-.08.16,0,.25.1.1.18.1.27.01" fill="#161514"/>
        <path d="M43.61,30.91c.13-.13.03-.35-.14-.35-.04,0-.1.04-.14.08-.09.11-.08.16,0,.25.1.1.19.1.27.02" fill="#161514"/>
        <path d="M50.91,30.63c-.1,0-.2,0-.3.01-.08.11-.08.15.02.25.1.1.19.1.27.02s.07-.2,0-.28" fill="#161514"/>
        <path d="M31.02,30.81c0-.14-.19-.25-.31-.16-.08.05-.11.16-.07.24.1.21.38.15.38-.08" fill="#161514"/>
        <path d="M38.04,31c.08.04.19,0,.24-.07.04-.06.03-.2-.03-.26-.05-.05-.2-.07-.26-.03-.13.09-.11.29.04.36" fill="#161514"/>
        <path d="M45.46,31.04c.07,0,.21-.13.21-.21,0-.2-.22-.28-.35-.14-.04.04-.07.1-.07.13,0,.06.15.22.21.22" fill="#161514"/>
        <path d="M52.63,30.67s-.02.01-.02.02c-.09.09-.08.18.02.27.1.09.12.09.22.04.09-.05.12-.09.12-.19,0-.04,0-.07-.03-.1-.1-.01-.2-.02-.3-.03" fill="#161514"/>
        <path d="M32.82,31.07c.1,0,.19-.09.19-.2,0-.09-.03-.14-.12-.18-.1-.05-.12-.05-.22.05-.09.09-.1.11-.05.21.05.09.09.12.19.12" fill="#161514"/>
        <path d="M40.11,31.07c.1,0,.19-.09.19-.2,0-.09-.03-.14-.12-.18-.09-.05-.11-.05-.17,0-.18.14-.12.38.1.38" fill="#161514"/>
        <path d="M47.25,30.84c-.02.06,0,.11.05.17.13.13.35.04.35-.14v-.03h-.4" fill="#161514"/>
        <path d="M27.56,31.09c.2-.13.02-.44-.2-.35-.02,0-.06.06-.09.1-.09.18.11.36.28.25" fill="#161514"/>
        <path d="M34.62,31.08c.1.07.18.06.27-.03s.08-.19-.03-.28c-.08-.07-.17-.07-.25,0-.09.09-.08.24,0,.3" fill="#161514"/>
        <path d="M42.09,31.13c.1,0,.21-.11.21-.21s-.11-.21-.2-.21c-.03,0-.1.04-.14.08-.04.04-.08.1-.08.12,0,.08.13.22.21.22" fill="#161514"/>
        <path d="M49.44,30.73h-.1s-.06.04-.09.06c-.04.04-.08.1-.08.13,0,.07.15.21.22.21.09,0,.19-.11.19-.21,0-.08-.07-.17-.15-.2" fill="#161514"/>
        <path d="M29.56,31.13c.14-.13.06-.35-.13-.35-.04,0-.1.02-.13.05-.09.1-.09.13-.05.23.07.15.19.17.3.07" fill="#161514"/>
        <path d="M36.86,31.13c.14-.13.06-.35-.13-.35-.04,0-.1.02-.13.05-.09.1-.09.13-.05.23.08.15.19.17.3.07" fill="#161514"/>
        <path d="M44,31.17c.12.06.29-.04.29-.18,0-.16-.22-.27-.33-.16s-.09.27.05.34" fill="#161514"/>
        <path d="M51.38,31.2c.09,0,.2-.12.2-.21,0-.15-.19-.26-.31-.18-.04.03-.11.15-.11.2,0,.06.15.19.22.19" fill="#161514"/>
        <path d="M31.36,31.22c.19.05.3-.07.25-.26-.01-.06-.15-.16-.19-.15,0,0-.04.02-.07.04-.16.08-.15.33,0,.37" fill="#161514"/>
        <path d="M38.91,31.12c.03-.12,0-.23-.1-.27-.05-.02-.09-.04-.09-.04,0,0-.04.02-.07.03-.1.05-.15.17-.1.27.07.15.33.15.37,0" fill="#161514"/>
        <path d="M46.2,31.12c.03-.12,0-.23-.1-.27-.04-.02-.09-.04-.09-.04,0,0-.04.02-.07.03-.1.05-.15.17-.1.27.07.15.33.15.37,0" fill="#161514"/>
        <path d="M53.37,31.23c.19,0,.27-.23.11-.35q-.1-.08-.19-.03c-.09.05-.14.13-.14.2,0,.09.12.19.22.19" fill="#161514"/>
        <path d="M33.38,31.29s.11-.05.15-.09c.06-.08.06-.09,0-.18-.08-.15-.19-.18-.3-.07-.14.13-.05.37.14.35" fill="#161514"/>
        <path d="M40.85,31.23c.08-.08.08-.21,0-.29-.09-.09-.17-.08-.27.01-.09.09-.09.12-.04.22.07.14.21.16.32.05" fill="#161514"/>
        <path d="M47.94,31.28c.21.05.35-.2.2-.34-.08-.07-.14-.08-.23-.03-.15.09-.13.33.03.37" fill="#161514"/>
        <path d="M28.06,31.36c.09,0,.19-.11.19-.21s-.11-.21-.2-.21c-.03,0-.1.04-.14.08s-.08.1-.08.13c0,.07.15.21.23.21" fill="#161514"/>
        <path d="M35.23,31.3c.08.07.17.07.25,0,.09-.09.08-.24,0-.3-.1-.07-.18-.06-.27.03s-.08.19.03.28" fill="#161514"/>
        <path d="M42.84,31.29c.13-.13.03-.35-.14-.35-.04,0-.1.04-.14.08-.09.11-.08.16,0,.25.1.1.19.1.27.02" fill="#161514"/>
        <path d="M50.13,31.29c.13-.13.03-.35-.14-.35-.04,0-.1.04-.14.08-.09.11-.08.16,0,.25.1.1.19.1.27.02" fill="#161514"/>
        <path d="M30.07,31.39c.15-.08.17-.27.04-.36-.06-.04-.2-.02-.26.03-.05.06-.07.19-.03.25.05.08.17.12.25.08" fill="#161514"/>
        <path d="M37.42,31.39c.1-.05.12-.09.12-.19,0-.14-.19-.25-.31-.16-.02.01-.05.06-.07.09-.08.15.11.34.26.26" fill="#161514"/>
        <path d="M44.83,31.2c0-.14-.19-.25-.31-.16-.08.05-.11.16-.07.24.1.21.38.15.38-.08" fill="#161514"/>
        <path d="M52.11,31.36c.1-.08.11-.2.02-.29-.08-.08-.21-.08-.29,0-.09.09-.08.17,0,.27.1.1.14.1.25.01" fill="#161514"/>
        <path d="M31.9,31.44c.19.05.34-.1.27-.26-.03-.06-.16-.16-.2-.15,0,0-.04.02-.08.04-.14.07-.13.33,0,.37" fill="#161514"/>
        <path d="M39.34,31.46c.1,0,.19-.09.19-.2,0-.09-.03-.14-.12-.18-.1-.05-.12-.05-.21.05-.1.1-.1.11-.05.21.05.09.09.12.19.12" fill="#161514"/>
        <path d="M46.63,31.46c.1,0,.19-.09.19-.2,0-.09-.03-.14-.12-.18-.08-.04-.07-.04-.16,0-.11.05-.16.17-.11.26.05.1.09.12.19.12" fill="#161514"/>
        <path d="M53.93,31.46c.1,0,.19-.09.19-.2,0-.09-.03-.14-.12-.18-.08-.04-.07-.04-.16,0-.1.05-.15.17-.1.26.05.09.09.12.19.12" fill="#161514"/>
        <path d="M26.74,31.12c-.08.1-.16.2-.23.3.05.05.12.1.17.1.09,0,.19-.11.19-.21,0-.07-.06-.15-.13-.19" fill="#161514"/>
        <path d="M33.83,31.45c.1.08.17.08.26.02s.09-.22,0-.3c-.08-.08-.17-.08-.27.01-.1.1-.1.19,0,.27" fill="#161514"/>
        <path d="M41.46,31.33c0-.16-.14-.26-.28-.2-.02,0-.06.06-.09.11-.04.09-.04.1,0,.17.11.17.37.11.37-.08" fill="#161514"/>
        <path d="M48.75,31.46c.08-.08.08-.21,0-.29-.09-.09-.17-.08-.27.01-.1.1-.1.14,0,.25.08.1.2.11.29.02" fill="#161514"/>
        <path d="M28.75,31.5c.1-.1.1-.14.01-.25-.07-.1-.17-.11-.28-.03-.09.07-.09.22,0,.3.09.09.17.08.27-.02" fill="#161514"/>
        <path d="M36.09,31.52c.09-.09.09-.24,0-.3-.11-.07-.2-.06-.28.03-.09.11-.08.16,0,.25.1.1.18.1.27.02" fill="#161514"/>
        <path d="M43.45,31.36c0-.16-.22-.26-.33-.14-.09.1-.09.13-.05.23.11.21.37.15.37-.09" fill="#161514"/>
        <path d="M50.74,31.52c.09-.08.09-.2,0-.29-.08-.08-.21-.08-.29,0-.09.09-.08.17,0,.27.1.1.18.1.27.01" fill="#161514"/>
        <path d="M30.67,31.61c.15-.07.17-.27.04-.36-.06-.04-.2-.03-.26.03-.05.05-.07.2-.03.26.05.08.16.11.24.07" fill="#161514"/>
        <path d="M32.76,31.54c.04-.06.03-.2-.03-.26-.05-.05-.2-.07-.26-.03-.08.05-.11.16-.07.24.07.15.27.17.36.04" fill="#161514"/>
        <path d="M38.15,31.42c0-.14-.19-.25-.31-.16-.08.05-.12.17-.08.25.11.2.38.14.39-.08" fill="#161514"/>
        <path d="M45.44,31.42c0-.14-.19-.25-.31-.16-.08.05-.11.16-.07.24.1.21.38.15.38-.08" fill="#161514"/>
        <path d="M52.47,31.61c.08.04.19,0,.24-.07.04-.06.03-.2-.03-.26-.05-.05-.2-.07-.26-.03-.13.09-.11.29.04.36" fill="#161514"/>
        <path d="M27.22,31.68c.1,0,.14-.03.19-.12.05-.1.05-.12-.04-.22-.09-.1-.18-.11-.27-.02-.14.13-.06.35.12.35" fill="#161514"/>
        <path d="M34.59,31.68c.18,0,.25-.23.12-.35-.09-.09-.18-.08-.27.02s-.09.12-.04.22c.05.09.09.12.19.12" fill="#161514"/>
        <path d="M40.02,31.63c.08-.07.08-.22,0-.3-.08-.07-.15-.08-.22-.02-.03.02-.07.08-.09.12-.09.16.18.34.32.21" fill="#161514"/>
        <path d="M47.32,31.65c.14-.07.14-.29,0-.35-.1-.05-.11-.05-.18,0-.23.13-.05.47.19.36" fill="#161514"/>
        <path d="M54.62,31.65c.14-.07.14-.29,0-.35-.1-.05-.11-.05-.18,0-.23.13-.05.47.19.36" fill="#161514"/>
        <path d="M29.21,31.74c.08,0,.18-.09.21-.19.01-.05,0-.09-.06-.15-.1-.1-.19-.1-.28-.02-.04.04-.06.1-.06.14,0,.1.1.21.19.21" fill="#161514"/>
        <path d="M36.51,31.74c.08,0,.23-.14.23-.21s-.15-.21-.23-.21c-.04,0-.09.03-.13.06-.04.04-.06.1-.06.14,0,.1.1.21.19.21" fill="#161514"/>
        <path d="M41.88,31.74c.09,0,.19-.11.19-.21s-.11-.21-.2-.21c-.03,0-.1.04-.14.08-.04.04-.08.1-.08.13,0,.07.15.21.22.21" fill="#161514"/>
        <path d="M43.87,31.74c.09,0,.19-.11.19-.21s-.11-.21-.2-.21c-.03,0-.1.04-.14.08-.04.04-.08.1-.08.13,0,.07.15.21.23.21" fill="#161514"/>
        <path d="M49.17,31.74c.09,0,.19-.11.19-.21s-.11-.21-.2-.21c-.03,0-.1.04-.14.08-.04.04-.08.1-.08.13,0,.07.15.21.22.21" fill="#161514"/>
        <path d="M31.28,31.77c.1-.05.12-.09.12-.19,0-.14-.19-.25-.31-.16-.02.01-.05.06-.07.09-.08.15.11.34.26.26" fill="#161514"/>
        <path d="M38.4,31.77c.18.14.4-.17.23-.32-.08-.07-.21-.07-.27,0-.1.12-.09.22.03.32" fill="#161514"/>
        <path d="M45.77,31.78c.12.06.29-.04.29-.18,0-.16-.22-.27-.33-.16s-.09.27.05.34" fill="#161514"/>
        <path d="M51.23,31.77c.1-.05.12-.09.12-.19,0-.14-.19-.25-.31-.16-.02.01-.05.06-.07.09-.08.15.11.34.26.26" fill="#161514"/>
        <path d="M33.14,31.84c.23,0,.28-.29.07-.38-.09-.04-.08-.04-.15,0-.09.05-.11.09-.11.19s.09.19.2.19" fill="#161514"/>
        <path d="M40.67,31.73c.03-.12,0-.23-.1-.27-.05-.02-.09-.04-.09-.04,0,0-.04.02-.07.03-.1.05-.15.17-.1.27.07.15.33.15.37,0" fill="#161514"/>
        <path d="M47.97,31.73c.03-.12,0-.23-.1-.27-.04-.02-.09-.04-.09-.04,0,0-.04.02-.07.03-.1.05-.15.17-.1.27.07.15.33.15.37,0" fill="#161514"/>
        <path d="M53.16,31.84c.1,0,.19-.09.19-.2,0-.09-.03-.14-.12-.18-.08-.04-.07-.04-.16,0-.11.05-.16.17-.11.26.05.1.09.12.19.12" fill="#161514"/>
        <path d="M55.14,31.84c.19,0,.27-.23.11-.35q-.1-.08-.19-.03c-.09.05-.14.12-.14.19,0,.08.13.19.22.19" fill="#161514"/>
        <path d="M27.72,31.86c.1.07.22.04.29-.06.05-.07.05-.09,0-.17-.08-.15-.2-.18-.31-.07-.09.09-.08.24.02.31" fill="#161514"/>
        <path d="M35.15,31.91c.07,0,.21-.14.21-.22,0-.07-.15-.2-.22-.2-.04,0-.09.03-.13.06-.13.13-.04.35.15.35" fill="#161514"/>
        <path d="M42.47,31.91c.1,0,.21-.11.21-.21s-.11-.21-.2-.21c-.03,0-.1.04-.14.08-.04.04-.08.1-.08.12,0,.08.13.22.21.22" fill="#161514"/>
        <path d="M49.77,31.91c.1,0,.21-.11.21-.21s-.11-.21-.2-.21c-.03,0-.1.04-.14.08-.04.04-.08.1-.08.12,0,.08.13.22.21.22" fill="#161514"/>
        <path d="M29.71,31.92h.23s.07-.09.07-.17c0-.16-.22-.26-.33-.14-.09.1-.09.13-.05.23.02.03.04.06.07.08" fill="#161514"/>
        <path d="M37.25,31.91c.17-.17-.03-.44-.23-.32-.1.06-.13.15-.08.25.07.14.2.17.31.07" fill="#161514"/>
        <path d="M44.6,31.83c.05-.09.05-.1,0-.18-.07-.1-.19-.12-.29-.05-.09.07-.1.22,0,.3.11.11.23.08.31-.07" fill="#161514"/>
        <path d="M51.89,31.9c.09-.08.09-.2,0-.29s-.21-.08-.29.02c-.09.11-.08.16,0,.25.1.1.18.1.27.01" fill="#161514"/>
        <path d="M31.94,31.88c.04-.08,0-.19-.07-.24-.06-.04-.2-.02-.26.04-.03.03-.05.09-.05.13,0,.23.29.28.38.07" fill="#161514"/>
        <path d="M39.04,32c.08.04.19,0,.24-.07.04-.06.03-.2-.03-.26-.05-.05-.2-.07-.26-.03-.13.09-.11.29.04.36" fill="#161514"/>
        <path d="M46.57,31.92c.04-.06.03-.2-.03-.26s-.2-.07-.26-.03c-.08.05-.11.16-.07.24.07.15.27.17.36.04" fill="#161514"/>
        <path d="M53.68,31.99c.09.05.1.05.18-.01.05-.03.09-.1.09-.15.02-.19-.21-.29-.35-.14-.11.11-.08.23.07.3" fill="#161514"/>
        <path d="M26.46,32.07c.1,0,.14-.02.19-.12.04-.08,0-.18-.09-.26-.06-.05-.1-.05-.18,0-.09.05-.11.09-.11.19s.09.19.2.19" fill="#161514"/>
        <path d="M33.75,32.07c.1,0,.14-.02.19-.12.04-.08,0-.18-.09-.26-.06-.05-.1-.05-.18,0-.09.05-.11.09-.11.19s.09.19.2.19" fill="#161514"/>
        <path d="M41.11,32.07c.1,0,.19-.09.19-.2,0-.09-.03-.14-.12-.18-.1-.05-.13-.05-.22.05-.09.1-.09.12-.04.22.05.09.09.12.19.12" fill="#161514"/>
        <path d="M48.4,32.07c.1,0,.19-.09.19-.2,0-.09-.03-.14-.12-.18-.09-.05-.11-.05-.17,0-.18.14-.12.38.1.38" fill="#161514"/>
        <path d="M55.59,31.69h0c-.18.14-.12.38.1.38.06,0,.12-.03.15-.08-.09-.1-.17-.19-.26-.29" fill="#161514"/>
        <path d="M28.57,32s.04-.06.04-.08c0-.07-.15-.21-.22-.21-.04,0-.09.03-.13.06-.04.04-.06.1-.06.14s.02.09.05.13c.11-.02.22-.04.33-.05" fill="#161514"/>
        <path d="M35.74,32.13c.11,0,.2-.1.2-.21,0-.18-.18-.27-.32-.15-.14.11-.05.36.13.36" fill="#161514"/>
        <path d="M43.04,32.13s.1-.04.14-.08c.09-.09.08-.19-.03-.28-.08-.07-.17-.07-.25,0-.04.04-.06.1-.06.14,0,.1.11.21.2.21" fill="#161514"/>
        <path d="M50.39,32.13c.09,0,.19-.11.19-.21s-.11-.21-.2-.21c-.03,0-.1.04-.14.08-.04.04-.08.1-.08.13,0,.07.15.21.23.21" fill="#161514"/>
        <path d="M30.59,32v-.06c-.05-.16-.25-.22-.35-.1-.03.03-.04.07-.05.11.14.01.27.04.4.06" fill="#161514"/>
        <path d="M37.85,32.13c.09-.08.09-.23,0-.3-.06-.05-.19-.07-.25-.03-.09.06-.11.16-.06.26.08.15.19.17.3.07" fill="#161514"/>
        <path d="M44.92,32.15c.18.14.4-.17.23-.32-.08-.07-.21-.07-.27,0-.1.12-.09.22.03.32" fill="#161514"/>
        <path d="M52.24,32.16c.1.05.21,0,.27-.12.03-.07.03-.1-.02-.17-.08-.1-.23-.12-.3-.04-.03.03-.06.07-.07.1-.03.06.04.19.13.24" fill="#161514"/>
        <path d="M32.29,32.21c.19.05.34-.1.27-.26-.03-.06-.16-.16-.2-.15l-.08.04c-.14.07-.13.33,0,.37" fill="#161514"/>
        <path d="M39.58,32.21c.19.05.34-.1.27-.26-.03-.06-.16-.16-.2-.15l-.08.04c-.14.07-.13.33,0,.37" fill="#161514"/>
        <path d="M47.19,32.11c.03-.12,0-.23-.1-.27-.04-.02-.09-.04-.09-.04,0,0-.04.02-.07.03-.1.05-.15.17-.1.27.07.15.33.15.37,0" fill="#161514"/>
        <path d="M54.49,32.11c.03-.12,0-.23-.1-.27-.04-.02-.09-.04-.09-.04,0,0-.04.02-.07.03-.1.05-.15.17-.1.27.07.15.33.15.37,0" fill="#161514"/>
        <path d="M27.19,32.17c.05-.1.05-.13-.04-.22-.1-.1-.18-.1-.27-.01-.09.08-.09.2,0,.29.11.11.25.08.32-.05" fill="#161514"/>
        <path d="M34.55,32.09c0-.15-.14-.25-.28-.2-.02,0-.06.06-.09.12-.05.09-.05.1,0,.18.12.17.36.1.36-.1" fill="#161514"/>
        <path d="M41.54,32.24c.11.07.21.05.28-.05.06-.08.06-.09,0-.18-.08-.15-.2-.18-.31-.07-.09.09-.08.24,0,.31" fill="#161514"/>
        <path d="M49.14,32.23c.08-.08.08-.21,0-.29-.09-.09-.17-.08-.27.01-.09.09-.09.12-.04.22.07.14.21.16.32.05" fill="#161514"/>
        <path d="M36.29,32.36c.07,0,.22-.14.22-.2,0-.02-.03-.08-.07-.13-.08-.1-.2-.11-.29-.02-.04.04-.06.1-.06.14,0,.1.1.21.19.21" fill="#161514"/>
        <path d="M43.77,32.29c.17-.17-.03-.44-.23-.32-.1.06-.13.15-.08.25.07.14.2.17.31.07" fill="#161514"/>
        <path d="M51,32.34c.09-.03.17-.19.13-.27-.06-.12-.19-.16-.29-.09-.1.06-.13.15-.08.25.05.11.14.15.24.12" fill="#161514"/>
        <path d="M31.18,32.15s-.04-.1-.08-.13c-.06-.04-.2-.02-.25.03.11.03.22.06.34.09" fill="#161514"/>
        <path d="M38.47,32.27c.04-.08,0-.19-.07-.24-.06-.04-.2-.02-.26.04-.03.03-.05.09-.05.13,0,.23.29.28.38.07" fill="#161514"/>
        <path d="M45.83,32.19c0-.14-.19-.25-.31-.16-.08.05-.11.16-.07.24.1.21.38.15.38-.08" fill="#161514"/>
        <path d="M53.12,32.19c0-.14-.19-.25-.31-.16-.08.05-.11.16-.07.24.1.21.38.15.38-.08" fill="#161514"/>
        <path d="M32.9,32.44c.19.05.3-.07.25-.26,0-.06-.15-.16-.19-.15,0,0-.04.02-.07.04-.16.08-.15.33,0,.37" fill="#161514"/>
        <path d="M40.27,32.45c.23,0,.28-.29.07-.38-.09-.04-.08-.04-.15,0-.09.05-.11.09-.11.19s.09.19.2.19" fill="#161514"/>
        <path d="M47.57,32.45c.1,0,.14-.02.19-.12.04-.08,0-.18-.09-.26-.06-.05-.1-.05-.18,0-.09.05-.11.09-.11.19s.09.19.2.19" fill="#161514"/>
        <path d="M54.92,32.45c.1,0,.19-.09.19-.2,0-.09-.03-.14-.12-.18-.1-.05-.12-.05-.21.05-.1.1-.1.11-.05.21.05.09.09.12.19.12" fill="#161514"/>
        <path d="M34.92,32.52c.08,0,.21-.13.21-.22,0-.07-.15-.2-.23-.2-.04,0-.09.03-.13.06-.13.13-.04.35.14.35" fill="#161514"/>
        <path d="M42.38,32.47c.09-.06.09-.22,0-.3-.08-.08-.17-.08-.25,0-.11.1-.12.19-.03.28s.17.1.27.03" fill="#161514"/>
        <path d="M49.64,32.49c.24-.11.08-.47-.17-.37-.07.03-.13.18-.1.26.04.11.16.16.27.11" fill="#161514"/>
        <path d="M36.9,32.58c.06,0,.22-.14.22-.2,0-.05-.07-.17-.11-.2-.06-.04-.16-.03-.24.03-.14.1-.04.37.13.37" fill="#161514"/>
        <path d="M44.25,32.58c.09,0,.2-.12.2-.22,0-.14-.19-.25-.31-.17-.04.03-.11.15-.11.19,0,.06.16.2.22.2" fill="#161514"/>
        <path d="M51.67,32.52c.14-.13.06-.35-.13-.35-.04,0-.1.02-.13.05-.09.1-.09.13-.05.23.08.15.19.17.3.07" fill="#161514"/>
        <path d="M38.81,32.6c.19.05.34-.1.27-.26-.03-.06-.16-.16-.2-.15l-.08.04c-.14.07-.13.33,0,.37" fill="#161514"/>
        <path d="M46.1,32.6c.19.05.34-.1.27-.26-.03-.06-.16-.16-.2-.15l-.08.04c-.14.07-.14.33,0,.37" fill="#161514"/>
        <path d="M53.72,32.5c.03-.12,0-.23-.1-.27-.04-.02-.09-.04-.09-.04,0,0-.04.02-.07.03-.1.05-.15.17-.1.27.07.15.33.15.37,0" fill="#161514"/>
        <path d="M26.11,32.62c.11-.04.22-.08.33-.12,0-.08-.03-.16-.11-.2-.09-.05-.14-.04-.22.03-.1.09-.08.22,0,.29" fill="#161514"/>
        <path d="M33.68,32.61c.09-.09.08-.17,0-.27-.1-.1-.17-.1-.27,0-.09.08-.09.2,0,.29.08.08.21.08.29,0" fill="#161514"/>
        <path d="M41.01,32.63c.16-.15-.02-.43-.22-.35-.02,0-.06.06-.09.11-.05.09-.05.1,0,.18.08.1.22.13.3.05" fill="#161514"/>
        <path d="M48.37,32.48c0-.15-.14-.25-.28-.2-.02,0-.06.06-.09.12-.05.09-.05.1,0,.18.12.17.36.1.36-.1" fill="#161514"/>
        <path d="M55.66,32.61c.08-.08.08-.21,0-.29-.09-.09-.17-.08-.27,0-.09.09-.09.12-.04.22.07.14.21.16.32.05" fill="#161514"/>
        <path d="M35.51,32.32s-.09.03-.13.06c-.04.04-.06.1-.06.14,0,.1.1.21.19.21.08,0,.23-.14.23-.21s-.15-.21-.23-.21" fill="#161514"/>
        <path d="M42.81,32.74c.08,0,.23-.14.23-.21s-.15-.21-.23-.21c-.04,0-.09.03-.13.06-.04.04-.06.1-.06.14,0,.1.1.21.19.21" fill="#161514"/>
        <path d="M50.17,32.74c.09,0,.19-.11.19-.21s-.11-.21-.2-.21c-.03,0-.1.04-.14.08s-.08.1-.08.13c0,.07.15.21.22.21" fill="#161514"/>
        <path d="M37.7,32.65c.04-.08,0-.19-.07-.24-.06-.04-.2-.02-.26.04-.03.03-.05.09-.05.13,0,.22.29.28.38.07" fill="#161514"/>
        <path d="M44.99,32.65c.04-.08,0-.19-.07-.24-.06-.04-.2-.02-.26.04-.03.03-.05.09-.05.13,0,.22.29.28.38.07" fill="#161514"/>
        <path d="M52.22,32.77c.1-.05.13-.09.13-.19,0-.14-.19-.25-.31-.16-.08.05-.12.17-.08.25.06.11.17.16.26.11" fill="#161514"/>
        <path d="M39.68,32.72c.03-.12,0-.23-.1-.27-.05-.02-.09-.04-.09-.04,0,0-.04.02-.07.03-.1.05-.15.17-.1.27.07.15.33.15.37,0" fill="#161514"/>
        <path d="M46.97,32.72c.03-.12,0-.23-.1-.27-.04-.02-.09-.04-.09-.04,0,0-.04.02-.07.03-.1.05-.15.17-.1.27.07.15.33.15.37,0" fill="#161514"/>
        <path d="M54,32.82c.19.05.34-.1.27-.26-.03-.06-.16-.16-.2-.15l-.08.04c-.14.07-.14.33,0,.37" fill="#161514"/>
        <path d="M34.15,32.9c.08,0,.21-.13.21-.22,0-.07-.15-.2-.22-.2-.04,0-.09.03-.13.06-.13.13-.04.35.14.35" fill="#161514"/>
        <path d="M41.44,32.9c.08,0,.21-.13.21-.22,0-.07-.15-.2-.22-.2-.04,0-.09.03-.13.06-.13.13-.04.35.14.35" fill="#161514"/>
        <path d="M48.78,32.9c.09,0,.19-.11.19-.21s-.11-.21-.2-.21c-.03,0-.1.04-.14.08s-.08.1-.08.13c0,.07.15.21.22.21" fill="#161514"/>
        <path d="M56.27,32.71c0-.16-.14-.26-.28-.2-.02,0-.06.06-.09.11-.04.09-.04.1,0,.17.11.17.37.11.37-.08" fill="#161514"/>
        <path d="M36.31,32.83c.05-.09.05-.1,0-.18-.07-.1-.19-.12-.29-.05-.09.07-.1.22,0,.3.11.11.23.08.31-.07" fill="#161514"/>
        <path d="M43.6,32.83c.05-.09.05-.1,0-.18-.07-.1-.19-.12-.29-.05-.09.07-.1.22,0,.3.11.11.23.08.31-.07" fill="#161514"/>
        <path d="M50.86,32.89c.1-.1.1-.14,0-.25-.07-.1-.17-.11-.28-.03-.09.07-.09.22,0,.3.09.09.17.08.27-.02" fill="#161514"/>
        <path d="M37.96,32.97c.07.05.1.06.16.02.16-.09.19-.2.09-.31-.08-.09-.23-.09-.3,0-.08.08-.05.22.05.3" fill="#161514"/>
        <path d="M45.34,32.99c.08.04.19,0,.24-.07.04-.06.03-.2-.03-.26-.05-.05-.2-.07-.26-.03-.13.09-.11.29.04.36" fill="#161514"/>
        <path d="M52.89,32.88c.04-.08,0-.19-.07-.24-.06-.04-.2-.03-.26.03-.05.05-.07.2-.03.26.09.13.29.11.36-.04" fill="#161514"/>
        <path d="M32.87,32.92s.03.04.05.06c0,0,0-.02.02-.03.05-.1.05-.12-.04-.22-.09-.1-.18-.11-.27-.02h0c.09.06.17.13.25.2" fill="#161514"/>
        <path d="M40.05,33.06c.09,0,.14-.03.19-.12.05-.1.05-.13-.04-.22s-.13-.1-.23-.04c-.09.05-.11.09-.11.19s.09.19.2.19" fill="#161514"/>
        <path d="M47.29,33.04c.06.04.2.02.26-.04.14-.16-.03-.41-.23-.34-.02,0-.06.06-.09.11-.05.1-.03.2.06.26" fill="#161514"/>
        <path d="M54.83,33.01c.08-.07.08-.22,0-.3-.08-.07-.15-.08-.22-.02-.03.02-.07.08-.09.12-.09.16.18.34.32.21" fill="#161514"/>
        <path d="M34.69,33.13c.08,0,.21-.13.21-.21,0-.02-.03-.08-.07-.12-.08-.1-.2-.11-.29-.02-.13.13-.04.35.14.35" fill="#161514"/>
        <path d="M42.04,33.13c.08,0,.23-.14.23-.21s-.15-.21-.23-.21c-.04,0-.09.03-.13.06-.04.04-.06.1-.06.14,0,.1.1.21.19.21" fill="#161514"/>
        <path d="M49.33,33.13c.08,0,.23-.14.23-.21s-.15-.21-.23-.21c-.04,0-.09.03-.13.06-.04.04-.06.1-.06.14,0,.1.1.21.19.21" fill="#161514"/>
        <path d="M56.57,32.76s-.02,0-.03.02c-.04.04-.08.1-.08.13,0,.05.07.13.14.17,0-.1,0-.21-.02-.31h0" fill="#161514"/>
        <path d="M36.64,33.17c.08.02.18-.03.23-.12.1-.19-.17-.38-.32-.22-.11.11-.06.29.1.34" fill="#161514"/>
        <path d="M43.93,33.15c.18.14.4-.17.23-.32-.08-.07-.21-.07-.27,0-.1.12-.09.22.03.32" fill="#161514"/>
        <path d="M51.4,33.16c.15-.08.17-.27.04-.36-.06-.04-.2-.02-.26.03-.05.06-.07.19-.03.25.05.08.17.12.25.08" fill="#161514"/>
        <path d="M33.3,33.22c.23,0,.3-.26.09-.37-.11-.06-.1-.06-.2.02-.15.12-.08.35.11.35" fill="#161514"/>
        <path d="M38.67,33.22c.23,0,.28-.29.07-.38-.09-.04-.08-.04-.15,0-.09.05-.11.09-.11.19s.09.19.2.19" fill="#161514"/>
        <path d="M45.96,33.22c.1,0,.14-.03.19-.12.05-.1,0-.21-.12-.26-.09-.04-.08-.04-.15,0-.09.05-.11.09-.11.19s.09.19.2.19" fill="#161514"/>
        <path d="M53.49,33.11c.03-.12,0-.23-.1-.27-.04-.02-.09-.04-.09-.04,0,0-.04.02-.07.03-.1.05-.15.17-.1.27.07.15.33.15.37,0" fill="#161514"/>
        <path d="M35.45,33.2c.09-.11.08-.16,0-.25-.1-.1-.18-.1-.27,0-.09.08-.09.2,0,.29s.21.08.29-.02" fill="#161514"/>
        <path d="M40.67,33.29c.07,0,.21-.14.21-.22,0-.07-.15-.2-.22-.2-.04,0-.09.03-.13.06-.13.13-.04.35.15.35" fill="#161514"/>
        <path d="M47.96,33.29c.08,0,.21-.13.21-.22,0-.07-.15-.2-.22-.2-.04,0-.09.03-.13.06-.13.13-.04.35.14.35" fill="#161514"/>
        <path d="M55.29,33.29c.1,0,.21-.11.21-.21s-.11-.21-.2-.21c-.03,0-.1.04-.14.08s-.08.1-.08.12c0,.08.13.22.21.22" fill="#161514"/>
        <path d="M37.28,33.35c.07,0,.23-.14.23-.2,0-.02-.03-.08-.07-.13-.08-.1-.2-.11-.29-.02-.04.04-.06.1-.06.14,0,.1.1.21.19.21" fill="#161514"/>
        <path d="M42.78,33.29c.17-.17-.03-.44-.23-.32-.1.06-.13.15-.08.25.07.14.2.17.31.07" fill="#161514"/>
        <path d="M44.72,33.27c.1-.1.1-.14,0-.25-.08-.1-.2-.11-.29-.02-.08.08-.08.21,0,.29.09.09.17.08.27,0" fill="#161514"/>
        <path d="M50.12,33.21c.05-.09.05-.1,0-.18-.07-.1-.19-.12-.29-.05-.09.07-.1.22,0,.3.11.11.23.08.31-.07" fill="#161514"/>
        <path d="M39.46,33.26c.04-.08,0-.19-.07-.24-.06-.04-.2-.03-.26.03-.05.05-.07.2-.03.26.09.13.29.11.36-.04" fill="#161514"/>
        <path d="M46.76,33.26c.04-.08,0-.19-.07-.24-.06-.04-.2-.02-.26.04-.03.03-.05.09-.05.13,0,.22.29.28.38.07" fill="#161514"/>
        <path d="M51.86,33.38c.08.04.19,0,.24-.07.04-.06.03-.2-.03-.26-.05-.05-.2-.07-.26-.03-.13.09-.11.29.04.36" fill="#161514"/>
        <path d="M33.85,33.43c.13.03.21,0,.25-.11s0-.2-.09-.26c-.08-.04-.09-.04-.19,0-.15.07-.13.33.03.36" fill="#161514"/>
        <path d="M41.36,33.38c.09-.09.09-.17,0-.27-.09-.09-.13-.1-.23-.04-.13.07-.15.21-.05.31.08.08.21.08.29,0" fill="#161514"/>
        <path d="M48.56,33.45c.1,0,.14-.02.19-.12.04-.08,0-.18-.09-.26-.06-.05-.1-.05-.18,0-.09.05-.11.09-.11.19s.09.19.2.19" fill="#161514"/>
        <path d="M53.86,33.45c.09,0,.14-.03.18-.12.05-.1.05-.12-.04-.22-.09-.09-.13-.1-.23-.05-.09.05-.11.09-.11.19s.09.19.2.19" fill="#161514"/>
        <path d="M55.86,33.45c.1,0,.14-.02.19-.12.04-.08,0-.18-.09-.26-.06-.05-.1-.05-.18,0-.09.05-.11.09-.11.19s.09.19.2.19" fill="#161514"/>
        <path d="M35.9,33.51c.08,0,.23-.14.23-.21s-.15-.21-.23-.21c-.04,0-.09.03-.13.06-.04.04-.06.1-.06.14,0,.1.1.21.19.21" fill="#161514"/>
        <path d="M43.19,33.51c.08,0,.22-.14.22-.21s-.15-.21-.22-.21c-.04,0-.09.03-.13.06-.04.04-.06.1-.06.14,0,.1.1.21.19.21" fill="#161514"/>
        <path d="M50.55,33.51c.09,0,.19-.11.19-.21s-.11-.21-.2-.21c-.03,0-.1.04-.14.08s-.08.1-.08.13c0,.07.15.21.23.21" fill="#161514"/>
        <path d="M38.07,33.44c.05-.1.02-.2-.06-.26-.06-.04-.2-.02-.25.03-.07.08-.07.22.02.29.11.11.22.08.3-.07" fill="#161514"/>
        <path d="M45.19,33.58c.06,0,.22-.14.22-.2,0-.05-.07-.17-.11-.19-.06-.04-.2-.02-.26.04-.11.12,0,.36.15.36" fill="#161514"/>
        <path d="M52.67,33.44c.1-.19-.19-.39-.33-.23-.07.07-.07.21,0,.28.11.11.27.09.34-.05" fill="#161514"/>
        <path d="M39.83,33.61c.09,0,.22-.11.22-.18,0-.08-.04-.14-.13-.19-.11-.06-.1-.06-.2.02-.15.12-.08.35.12.35" fill="#161514"/>
        <path d="M47.18,33.42c.06-.02.13-.04.19-.06v-.03c-.03-.06-.16-.16-.2-.15l-.08.04c-.09.05-.12.18-.09.27.06-.03.12-.06.18-.08" fill="#161514"/>
        <path d="M54.39,33.6c.19.05.34-.1.27-.26-.03-.06-.16-.16-.2-.15l-.08.04c-.14.07-.14.33,0,.37" fill="#161514"/>
        <path d="M34.68,33.59c.09-.11.08-.16,0-.25-.1-.1-.18-.1-.27,0-.09.08-.09.2,0,.29s.21.08.29-.02" fill="#161514"/>
        <path d="M42,33.55c.05-.1.05-.13-.04-.22-.1-.1-.18-.1-.27,0-.09.08-.09.2,0,.29.11.11.25.08.32-.05" fill="#161514"/>
        <path d="M49.29,33.55c.05-.1.05-.13-.04-.22-.1-.1-.18-.1-.27,0-.09.08-.09.2,0,.29.11.11.25.08.32-.05" fill="#161514"/>
        <path d="M56.46,33.66c.06,0,.11-.02.15-.06v-.26c-.06-.08-.14-.1-.23-.06-.02,0-.06.06-.09.11-.05.09-.05.1,0,.18.05.06.09.08.17.08" fill="#161514"/>
        <path d="M36.59,33.66c.1-.1.1-.18,0-.27-.08-.09-.2-.09-.29,0-.08.08-.08.21,0,.29.09.09.17.08.27,0" fill="#161514"/>
        <path d="M43.8,33.74c.07,0,.23-.14.23-.2,0-.02-.03-.08-.07-.13-.08-.1-.2-.11-.29-.02-.04.04-.06.1-.06.14,0,.1.1.21.19.21" fill="#161514"/>
        <path d="M51.1,33.74c.07,0,.22-.14.22-.2,0-.02-.03-.08-.07-.13-.08-.1-.2-.11-.29-.02-.04.04-.06.1-.06.14,0,.1.1.21.19.21" fill="#161514"/>
        <path d="M38.46,33.8c.06,0,.2-.16.2-.22,0-.17-.27-.27-.37-.13-.05.08-.07.18-.03.24.03.04.15.11.2.11" fill="#161514"/>
        <path d="M45.99,33.65c.04-.08,0-.19-.07-.24-.06-.04-.2-.03-.26.03-.05.05-.07.2-.03.26.09.13.29.11.36-.04" fill="#161514"/>
        <path d="M53.28,33.65c.04-.08,0-.19-.07-.24-.06-.04-.2-.02-.26.04-.03.03-.05.09-.05.13,0,.22.29.28.38.07" fill="#161514"/>
        <path d="M40.43,33.83c.09,0,.14-.03.19-.12.05-.1.05-.13-.04-.22s-.13-.1-.23-.04c-.09.05-.11.09-.11.19s.09.19.2.19" fill="#161514"/>
        <path d="M55.01,33.82c.27.07.4-.26.15-.37-.04-.02-.08-.03-.08-.03,0,0-.04.02-.07.03-.16.08-.15.33,0,.37" fill="#161514"/>
        <path d="M35.22,33.81c.09-.11.08-.16,0-.25-.1-.1-.18-.1-.27,0-.09.08-.09.2,0,.29s.21.08.29-.02" fill="#161514"/>
        <path d="M42.42,33.9c.08,0,.23-.14.23-.21s-.15-.21-.23-.21c-.04,0-.09.03-.13.06-.04.04-.06.1-.06.14,0,.1.1.21.19.21" fill="#161514"/>
        <path d="M49.72,33.9c.08,0,.23-.14.23-.21s-.15-.21-.23-.21c-.04,0-.09.03-.13.06-.04.04-.06.1-.06.14,0,.1.1.21.19.21" fill="#161514"/>
        <path d="M37.02,33.94c.08.02.18-.03.23-.12.1-.19-.17-.38-.32-.22-.11.11-.06.29.1.34" fill="#161514"/>
        <path d="M44.28,33.93c.1.05.13.05.22-.04.1-.1.1-.18,0-.27-.08-.09-.2-.09-.29,0-.11.11-.08.25.05.32" fill="#161514"/>
        <path d="M51.89,33.82c.05-.09.05-.1,0-.18-.08-.11-.23-.13-.31-.04-.07.08-.07.22.02.29.11.11.23.08.3-.07" fill="#161514"/>
        <path d="M39.06,33.99c.09,0,.22-.11.21-.19,0-.07-.06-.14-.15-.19-.06-.03-.12-.02-.18.03-.15.12-.08.35.12.35" fill="#161514"/>
        <path d="M46.3,33.99c.08-.08.17-.15.26-.22-.02-.06-.07-.12-.14-.16-.06-.03-.12-.02-.18.03-.14.11-.09.3.06.34" fill="#161514"/>
        <path d="M53.63,33.98c.27.07.4-.26.15-.37-.04-.02-.08-.03-.08-.03,0,0-.04.02-.07.03-.16.08-.15.33,0,.37" fill="#161514"/>
        <path d="M33.56,33.99c.08.08.2.08.29,0,.09-.09.09-.17,0-.27-.09-.09-.13-.1-.23-.04-.08.05-.12.11-.11.18.02.04.04.09.07.13" fill="#161514"/>
        <path d="M41.06,34.06c.07,0,.21-.13.21-.21,0-.06-.15-.21-.22-.21-.03,0-.09.03-.13.07-.14.13-.05.35.14.35" fill="#161514"/>
        <path d="M55.82,33.94c.05-.1.05-.13-.04-.22-.1-.1-.18-.1-.27,0-.09.08-.09.2,0,.29.11.11.25.08.32-.05" fill="#161514"/>
        <path d="M35.83,33.79c-.08-.1-.2-.11-.29-.02-.04.04-.06.1-.06.14,0,.1.1.21.19.21.07,0,.22-.14.22-.2,0-.02-.03-.08-.07-.13" fill="#161514"/>
        <path d="M42.97,34.12c.07,0,.22-.14.22-.2,0-.02-.03-.08-.07-.13-.08-.1-.2-.11-.29-.02-.04.04-.06.1-.06.14,0,.1.1.21.19.21" fill="#161514"/>
        <path d="M50.33,34.12c.08,0,.23-.14.23-.21s-.15-.21-.23-.21c-.04,0-.09.03-.13.06-.04.04-.06.1-.06.14,0,.1.1.21.19.21" fill="#161514"/>
        <path d="M37.63,34.17c.07.02.21-.06.24-.15.02-.06-.03-.19-.09-.23s-.2-.02-.26.04c-.1.12-.05.29.11.34" fill="#161514"/>
        <path d="M45.16,34.05c.1-.19-.19-.39-.33-.23-.07.07-.07.21,0,.27.11.11.27.09.34-.05" fill="#161514"/>
        <path d="M52.29,34.19c.06,0,.19-.15.19-.22,0-.17-.27-.27-.37-.13-.05.08-.07.18-.03.24.03.04.15.11.2.11" fill="#161514"/>
        <path d="M39.61,34.22c.1,0,.21-.1.21-.19,0-.07-.14-.22-.2-.22-.03,0-.08.03-.13.07s-.09.1-.09.14c0,.1.11.21.21.21" fill="#161514"/>
        <path d="M54.25,34.22c.09,0,.14-.03.18-.12.05-.1.05-.12-.05-.22-.09-.09-.12-.1-.22-.04-.09.05-.11.09-.11.19s.09.19.2.19" fill="#161514"/>
        <path d="M34.45,34.2c.09-.11.08-.16,0-.25-.1-.1-.18-.1-.27,0-.09.08-.09.2,0,.29s.21.08.29-.02" fill="#161514"/>
        <path d="M41.74,34.2c.09-.11.08-.16,0-.25-.1-.1-.18-.1-.27,0-.09.08-.09.2,0,.29s.21.08.29-.02" fill="#161514"/>
        <path d="M56.25,34.28c.08,0,.21-.13.21-.22,0-.07-.15-.2-.23-.2-.04,0-.09.03-.13.06-.13.13-.04.35.14.35" fill="#161514"/>
        <path d="M36.43,34.27c.09-.09.09-.12.04-.22-.07-.14-.21-.16-.32-.05-.08.08-.08.21,0,.29.09.09.17.08.27,0" fill="#161514"/>
        <path d="M43.73,34.27c.09-.09.09-.12.04-.22-.07-.14-.21-.16-.32-.05-.08.08-.08.21,0,.29.09.09.17.08.27,0" fill="#161514"/>
        <path d="M51.02,34.27c.09-.09.09-.12.04-.22-.07-.14-.21-.16-.32-.05-.08.08-.08.21,0,.29.09.09.17.08.27,0" fill="#161514"/>
        <path d="M38.13,34.36c.07.05.09.05.17,0,.15-.08.18-.2.07-.31-.09-.09-.24-.08-.31.02-.07.1-.04.22.06.29" fill="#161514"/>
        <path d="M45.76,34.26c.04-.08,0-.19-.07-.24-.06-.04-.2-.02-.26.04-.03.03-.05.09-.05.13,0,.22.29.28.38.07" fill="#161514"/>
        <path d="M53.06,34.27c.04-.08,0-.19-.08-.25-.06-.04-.2-.02-.26.03-.03.03-.05.09-.05.13,0,.22.28.28.38.08" fill="#161514"/>
        <path d="M40.36,34.37c.09-.09.09-.17,0-.27-.09-.09-.13-.1-.23-.04-.13.07-.15.21-.05.31.08.08.21.08.29,0" fill="#161514"/>
        <path d="M54.86,34.44c.1,0,.14-.03.19-.12.05-.1.05-.12-.04-.22-.09-.1-.18-.11-.27-.02-.14.13-.06.35.12.35" fill="#161514"/>
        <path d="M34.99,34.43c.09-.1.09-.19,0-.27-.09-.09-.2-.09-.28,0-.08.08-.08.2,0,.28.1.09.19.09.27,0" fill="#161514"/>
        <path d="M42.2,34.51c.08,0,.22-.14.22-.21s-.15-.21-.22-.21c-.04,0-.09.03-.13.06-.04.04-.06.1-.06.14,0,.1.1.21.19.21" fill="#161514"/>
        <path d="M36.73,34.51s.1.07.13.07c.07,0,.2-.15.2-.22,0-.09-.11-.19-.21-.19-.05,0-.11.03-.14.06-.09.09-.08.21.02.29" fill="#161514"/>
        <path d="M44.25,34.56c.08-.03.17-.17.15-.24-.05-.16-.25-.22-.35-.1-.05.06-.07.19-.03.25s.17.11.23.09" fill="#161514"/>
        <path d="M51.68,34.44c.1-.19-.19-.39-.33-.23-.07.07-.07.21,0,.28.11.11.27.09.34-.05" fill="#161514"/>
        <path d="M38.82,34.6c.23,0,.3-.26.09-.37-.11-.06-.1-.06-.2.02-.15.12-.08.35.11.35" fill="#161514"/>
        <path d="M53.48,34.6c.22,0,.28-.29.07-.38-.09-.04-.08-.04-.15,0-.09.05-.11.09-.11.19s.09.19.2.19" fill="#161514"/>
        <path d="M40.97,34.58c.09-.11.08-.16,0-.25-.1-.1-.18-.1-.27,0-.09.08-.09.2,0,.29s.21.08.29-.02" fill="#161514"/>
        <path d="M55.35,34.62c.11.07.21.05.28-.05.06-.08.06-.09,0-.18-.08-.15-.2-.18-.31-.07-.09.09-.08.24,0,.31" fill="#161514"/>
        <path d="M35.61,34.39c-.08-.09-.2-.09-.29,0-.08.08-.08.21,0,.29.09.09.17.09.27,0,.1-.1.1-.18,0-.27" fill="#161514"/>
        <path d="M42.63,34.66c.11.09.16.08.25,0,.1-.1.1-.18,0-.27-.08-.09-.2-.09-.29,0s-.08.21.02.29" fill="#161514"/>
        <path d="M50.13,34.48s.11.08.17.12c.05-.06.03-.11-.03-.2-.08-.1-.19-.11-.27-.03.05.04.1.07.14.11" fill="#161514"/>
        <path d="M37.35,34.74c.08.06.09.06.18,0,.15-.08.18-.2.07-.31-.09-.09-.24-.08-.31,0-.07.11-.05.21.05.28" fill="#161514"/>
        <path d="M44.76,34.8c.07,0,.2-.15.2-.23,0-.17-.27-.26-.37-.12-.03.04-.05.1-.05.14,0,.07.14.21.22.21" fill="#161514"/>
        <path d="M52.28,34.65c.04-.08,0-.19-.07-.24-.06-.04-.2-.02-.26.04-.03.03-.05.09-.05.13,0,.22.29.28.38.07" fill="#161514"/>
        <path d="M33.94,34.76s.09.07.15.07c.1,0,.21-.1.21-.19,0-.07-.14-.23-.2-.23-.03,0-.08.03-.13.07s-.09.1-.09.14v.02s.04.07.06.11" fill="#161514"/>
        <path d="M39.63,34.7c.04-.11,0-.2-.09-.26-.08-.04-.09-.04-.19,0-.04.02-.08.07-.09.11-.06.25.28.38.37.14" fill="#161514"/>
        <path d="M54.18,34.76c.09-.09.09-.17,0-.27-.09-.09-.13-.1-.23-.04-.13.08-.15.21-.05.31.08.08.21.08.29,0" fill="#161514"/>
        <path d="M36.07,34.89c.08,0,.21-.13.21-.21,0-.02-.03-.08-.07-.12-.08-.1-.2-.11-.29-.02-.13.13-.04.35.14.35" fill="#161514"/>
        <path d="M41.52,34.82c.09-.1.09-.19,0-.27-.09-.09-.18-.09-.27,0-.09.08-.09.2,0,.29.08.08.2.08.28,0" fill="#161514"/>
        <path d="M56.01,34.89c.08,0,.22-.14.22-.21s-.15-.21-.22-.21c-.04,0-.09.03-.13.06-.04.04-.06.1-.06.14,0,.1.1.21.19.21" fill="#161514"/>
        <path d="M38,34.96c.07,0,.21-.15.21-.23,0-.09-.11-.19-.21-.19-.05,0-.11.03-.14.06-.04.04-.06.09-.06.13,0,.08.14.23.21.23" fill="#161514"/>
        <path d="M43.28,34.92c.1.05.13.05.22-.04.1-.1.1-.18,0-.27-.08-.09-.2-.09-.29,0-.11.11-.08.25.05.32" fill="#161514"/>
        <path d="M45.27,34.92c.1.05.13.05.22-.04h0s.03-.04.04-.05c.05-.07.04-.14-.03-.21-.08-.09-.2-.09-.29,0-.11.11-.08.25.05.32" fill="#161514"/>
        <path d="M50.74,34.92c.06-.05.13-.14.13-.19,0-.09-.11-.19-.21-.19-.04,0-.11.03-.14.06s-.06.08-.06.12c.09.07.19.13.28.2" fill="#161514"/>
        <path d="M40.14,34.93c.08-.08.08-.17,0-.25-.1-.11-.19-.12-.28-.03s-.1.17-.03.27c.06.09.22.09.3,0" fill="#161514"/>
        <path d="M52.64,34.99c.23,0,.3-.26.09-.37-.11-.06-.1-.06-.2.02-.15.12-.08.35.11.35" fill="#161514"/>
        <path d="M34.79,35.02s.03-.02.05-.04c.09-.09.08-.17,0-.27-.1-.1-.17-.1-.27,0-.08.08-.09.19-.02.27.08,0,.17.03.25.05" fill="#161514"/>
        <path d="M42.13,34.98c.09-.09.09-.17,0-.27-.09-.09-.13-.1-.23-.04-.13.07-.15.21-.05.31.08.08.21.08.29,0" fill="#161514"/>
        <path d="M54.82,34.94c.05-.1.05-.13-.04-.22-.1-.1-.18-.1-.27,0-.09.08-.09.2,0,.29.11.11.25.08.32-.05" fill="#161514"/>
        <path d="M36.63,35.12c.08,0,.21-.13.21-.22,0-.1-.11-.2-.21-.2-.05,0-.11.03-.14.06-.04.04-.06.1-.06.14,0,.09.12.22.21.22" fill="#161514"/>
        <path d="M44.11,35.04c.1-.1.1-.14,0-.25-.08-.1-.2-.11-.29-.02-.08.08-.08.21,0,.29.09.09.17.08.27,0" fill="#161514"/>
        <path d="M51.4,35.04c.1-.1.1-.14,0-.25-.08-.1-.2-.11-.29-.02-.08.08-.08.21,0,.29.09.09.17.08.27,0" fill="#161514"/>
        <path d="M38.61,35.18c.07,0,.21-.15.21-.22,0-.09-.11-.19-.21-.19-.05,0-.11.03-.14.06-.04.04-.06.09-.06.13,0,.08.14.22.21.22" fill="#161514"/>
        <path d="M53.28,35.18c.06,0,.2-.16.2-.22,0-.16-.25-.26-.36-.14-.06.06-.07.19-.03.25.03.04.15.11.19.11" fill="#161514"/>
        <path d="M40.61,35.21c.1,0,.21-.1.21-.19,0-.07-.14-.22-.2-.22-.03,0-.08.03-.13.07s-.09.1-.09.14c0,.1.11.21.21.21" fill="#161514"/>
        <path d="M55.24,35.21c.09,0,.14-.03.18-.12.05-.1.05-.12-.05-.22-.09-.09-.12-.1-.22-.04-.09.05-.11.09-.11.19s.09.19.2.19" fill="#161514"/>
        <path d="M35.41,35.18c.06-.08.04-.18-.04-.25-.1-.09-.19-.09-.27,0-.05.05-.07.1-.07.14.11.03.22.06.33.09,0,0,.03,0,.04,0" fill="#161514"/>
        <path d="M42.6,35.28c.08,0,.21-.13.21-.22,0-.07-.15-.2-.23-.2-.04,0-.09.03-.13.06-.13.13-.04.35.14.35" fill="#161514"/>
        <path d="M37.11,35.28s.1.07.13.07c.07,0,.2-.15.2-.22,0-.09-.11-.19-.21-.19-.05,0-.11.03-.14.06-.09.09-.08.21.02.29" fill="#161514"/>
        <path d="M44.4,35.28s.1.07.13.07c.07,0,.2-.15.2-.22,0-.09-.11-.19-.21-.19-.05,0-.11.03-.14.06-.09.09-.08.21.02.29" fill="#161514"/>
        <path d="M52.02,35.26c.09-.09.09-.12.04-.22-.07-.14-.21-.16-.32-.05-.08.08-.08.21,0,.29.09.09.17.08.27,0" fill="#161514"/>
        <path d="M39.37,35.31c.11-.1.08-.23-.07-.31-.08-.04-.15-.03-.21.03-.09.09-.1.16-.03.27.06.09.22.09.3,0" fill="#161514"/>
        <path d="M53.78,35.36c.19.05.34-.1.27-.26-.03-.06-.16-.16-.2-.15l-.08.04c-.14.07-.14.33,0,.37" fill="#161514"/>
        <path d="M41.36,35.23c0-.08-.13-.21-.22-.21-.02,0-.08.04-.12.08-.1.1-.1.19,0,.27.13.13.35.04.35-.14" fill="#161514"/>
        <path d="M55.95,35.37c.09-.09.09-.17,0-.27-.09-.09-.13-.1-.23-.04-.13.07-.15.21-.05.31.08.08.21.08.29,0" fill="#161514"/>
        <path d="M36.03,35.39c.05-.08.04-.15-.03-.23-.08-.09-.2-.09-.29,0-.03.03-.05.07-.06.11.13.04.25.08.38.13" fill="#161514"/>
        <path d="M43.28,35.43c.09-.09.09-.18,0-.27-.08-.09-.2-.09-.29,0-.08.08-.08.2,0,.28.1.09.19.09.27,0" fill="#161514"/>
        <path d="M37.72,35.5s.1.07.13.07c.07,0,.2-.15.2-.22,0-.09-.11-.19-.21-.19-.05,0-.11.03-.14.06-.09.09-.08.21.02.29" fill="#161514"/>
        <path d="M45,35.49c.08-.1.16-.2.24-.3-.03-.02-.07-.04-.11-.04s-.11.03-.14.06c-.09.09-.08.2,0,.28" fill="#161514"/>
        <path d="M52.43,35.57c.07,0,.21-.15.21-.22,0-.09-.11-.19-.21-.19-.05,0-.11.03-.14.06s-.06.09-.06.13c0,.08.14.22.21.22" fill="#161514"/>
        <path d="M39.77,35.6c.1,0,.21-.1.21-.19,0-.08-.14-.22-.21-.22-.03,0-.09.04-.13.08s-.08.11-.08.14c0,.09.11.2.21.2" fill="#161514"/>
        <path d="M54.42,35.6c.1,0,.21-.1.21-.19,0-.07-.14-.22-.2-.22-.03,0-.08.03-.13.07s-.09.1-.09.14c0,.1.11.21.21.21" fill="#161514"/>
        <path d="M41.97,35.46c0-.09-.13-.22-.22-.22-.04,0-.09.03-.13.07-.09.09-.09.2,0,.28.12.12.35.04.35-.14" fill="#161514"/>
        <path d="M36.59,35.6c.04-.07.03-.16-.04-.23-.08-.08-.21-.08-.29,0-.02.02-.04.05-.05.07.13.05.25.1.38.15" fill="#161514"/>
        <path d="M43.63,35.66c.11.09.16.08.25,0,.1-.1.1-.18,0-.27-.08-.09-.2-.09-.29,0s-.08.21.02.29" fill="#161514"/>
        <path d="M38.52,35.72c.09-.09.1-.17.03-.27-.06-.09-.22-.09-.3,0-.08.08-.08.17,0,.25.1.11.19.12.28.03" fill="#161514"/>
        <path d="M52.93,35.74c.08.06.09.06.18,0,.15-.08.18-.2.07-.31-.09-.09-.24-.08-.31,0-.07.11-.05.21.05.28" fill="#161514"/>
        <path d="M40.38,35.83c.1,0,.21-.1.21-.19,0-.08-.14-.22-.21-.22-.03,0-.09.04-.13.08s-.08.11-.08.14c0,.09.11.2.21.2" fill="#161514"/>
        <path d="M55.18,35.75c.09-.09.09-.17,0-.27-.09-.09-.13-.1-.23-.04-.13.08-.15.21-.05.31.08.08.21.08.29,0" fill="#161514"/>
        <path d="M42.37,35.89c.09,0,.22-.12.22-.21s-.13-.21-.22-.21c-.04,0-.1.03-.14.06-.12.12-.04.35.14.35" fill="#161514"/>
        <path d="M37.17,35.85s.05-.08.05-.11c0-.1-.11-.21-.21-.21-.04,0-.11.03-.14.06-.03.03-.05.06-.06.09.12.05.24.1.36.16" fill="#161514"/>
        <path d="M44.3,35.95c.08,0,.22-.13.22-.21,0-.1-.11-.21-.21-.21-.04,0-.11.03-.14.06-.04.04-.06.09-.06.13,0,.07.14.23.2.23" fill="#161514"/>
        <path d="M39,35.99c.1,0,.21-.1.21-.19,0-.08-.14-.22-.21-.22-.03,0-.09.04-.13.08s-.08.11-.08.14c0,.09.11.2.21.2" fill="#161514"/>
        <path d="M53.64,35.99c.09,0,.22-.11.22-.18,0-.08-.04-.14-.13-.19-.11-.06-.1-.06-.2.02-.15.12-.08.35.12.35" fill="#161514"/>
        <path d="M41.13,35.98c.09-.09.09-.17,0-.27-.1-.1-.18-.1-.27,0-.09.08-.09.2,0,.29.08.08.21.08.29,0" fill="#161514"/>
        <path d="M55.79,35.84c0-.08-.13-.21-.21-.21-.02,0-.08.03-.12.07-.1.08-.11.2-.02.29.13.13.35.04.35-.14" fill="#161514"/>
        <path d="M43.06,36.05c.09-.08.09-.2,0-.29-.08-.08-.21-.08-.29,0-.09.09-.09.17,0,.27.1.1.18.1.27,0" fill="#161514"/>
        <path d="M37.74,36.11s.09-.11.09-.15c0-.09-.11-.19-.21-.19-.05,0-.11.03-.14.06-.04.04-.06.09-.06.13h0c.11.05.22.1.33.15" fill="#161514"/>
        <path d="M52.48,35.96s-.02-.08-.06-.13c-.07-.07-.18-.09-.26-.04.11.06.21.11.32.17" fill="#161514"/>
        <path d="M39.69,36.15c.11-.11.08-.25-.05-.32-.1-.05-.13-.05-.22.04-.1.1-.1.18,0,.27.08.09.2.09.29,0" fill="#161514"/>
        <path d="M54.2,36.21c.1,0,.21-.1.21-.19,0-.08-.14-.22-.21-.22-.03,0-.09.04-.13.08s-.08.11-.08.14c0,.09.11.2.21.2" fill="#161514"/>
        <path d="M41.68,36.21c.13-.13.04-.35-.14-.35-.04,0-.1.03-.14.07-.09.1-.09.19,0,.27.09.09.2.09.28,0" fill="#161514"/>
        <path d="M43.53,36.34c.07,0,.21-.15.21-.23,0-.09-.11-.19-.21-.19-.05,0-.11.03-.14.06-.04.04-.06.09-.06.13,0,.08.14.23.21.23" fill="#161514"/>
        <path d="M38.27,36.35s.04-.03.06-.05c.07-.11.06-.21-.03-.28q-.1-.08-.19-.03c-.11.06-.16.14-.14.22.1.05.2.09.3.14" fill="#161514"/>
        <path d="M53.02,36.22v-.04c0-.08-.14-.22-.21-.22-.03,0-.09.04-.13.08l-.02.02c.12.06.23.11.35.16" fill="#161514"/>
        <path d="M40.3,36.37c.09-.09.08-.21-.02-.29-.11-.09-.16-.08-.25,0-.1.1-.1.18,0,.27.08.09.2.09.29,0" fill="#161514"/>
        <path d="M54.95,36.36c.09-.09.08-.17,0-.27-.1-.1-.14-.1-.25,0-.1.08-.11.2-.02.29.08.08.21.08.29,0" fill="#161514"/>
        <path d="M42.15,36.5c.08,0,.21-.13.21-.22,0-.1-.11-.2-.21-.2-.05,0-.11.03-.14.06-.04.04-.06.1-.06.14,0,.09.12.22.21.22" fill="#161514"/>
        <path d="M38.77,36.56c.08,0,.22-.13.22-.21,0-.1-.11-.21-.21-.21-.04,0-.11.03-.14.06-.04.04-.06.09-.06.13,0,.07.14.22.2.22" fill="#161514"/>
        <path d="M44.09,36.54c.09-.08.17-.17.25-.26-.03-.07-.12-.14-.2-.14-.05,0-.11.03-.14.06-.04.04-.06.09-.06.13,0,.06.08.16.15.21" fill="#161514"/>
        <path d="M40.77,36.6c.1,0,.21-.1.21-.19,0-.08-.14-.22-.21-.22-.03,0-.09.04-.13.08s-.08.11-.08.14c0,.09.11.2.21.2" fill="#161514"/>
        <path d="M53.62,36.47s.02-.05.02-.07c0-.07-.14-.22-.2-.22-.03,0-.08.03-.13.07-.03.02-.05.05-.06.07.12.05.25.11.38.16" fill="#161514"/>
        <path d="M42.7,36.66c.1,0,.21-.11.21-.21s-.11-.21-.2-.21c-.03,0-.1.04-.14.08s-.08.1-.08.12c0,.08.13.22.21.22" fill="#161514"/>
        <path d="M55.36,36.65c.07-.1.13-.21.2-.31-.05-.05-.12-.1-.16-.1s-.09.03-.13.06c-.11.11-.05.3.09.34" fill="#161514"/>
        <path d="M39.56,36.65c.04-.08.04-.1,0-.17-.06-.11-.16-.15-.26-.1-.11.06-.15.19-.08.29.08.12.27.11.34-.02" fill="#161514"/>
        <path d="M53.87,36.58c.09.03.18.06.27.1.06-.09.05-.17-.04-.25s-.1-.09-.2-.04c-.08.04-.13.1-.14.16.03,0,.07.03.1.04" fill="#161514"/>
        <path d="M41.41,36.79c.14-.07.14-.29,0-.35-.1-.05-.11-.05-.18,0-.23.13-.05.47.19.36" fill="#161514"/>
        <path d="M43.44,36.82c.09-.08.09-.2,0-.29s-.21-.08-.29.02c-.09.11-.08.16,0,.25.1.1.18.1.27,0" fill="#161514"/>
        <path d="M40.14,36.77c0-.07-.14-.21-.21-.21-.02,0-.08.04-.13.08-.1.09-.11.17-.02.27.13.14.35.05.35-.14" fill="#161514"/>
        <path d="M54.58,36.56s-.09.04-.13.08c-.03.03-.06.07-.07.11.13.04.25.08.38.12.02-.03.03-.05.03-.08,0-.08-.14-.22-.21-.22" fill="#161514"/>
        <path d="M42.07,36.98c.08-.08.08-.21,0-.29-.09-.09-.17-.08-.27,0-.1.1-.1.17,0,.27.08.09.2.09.29,0" fill="#161514"/>
        <path d="M40.69,37.14c.09-.09.08-.21-.02-.29-.11-.09-.16-.08-.25,0-.1.1-.1.18,0,.27.08.09.2.09.29,0" fill="#161514"/>
        <path d="M42.67,37.2c.09-.08.09-.2,0-.29-.08-.08-.2-.08-.28,0-.09.1-.09.19,0,.27.09.09.18.09.27,0" fill="#161514"/>
        <path d="M40.99,37.39s.11.02.16.03c.08-.03.15-.11.15-.2,0-.1-.11-.21-.2-.21-.03,0-.1.04-.14.08s-.08.1-.08.12c0,.05.05.12.11.17" fill="#161514"/>
        <path d="M43.26,37.18c-.06-.09-.19-.14-.28-.08-.04.03-.11.15-.11.2,0,0,0,.03.02.05.12-.04.24-.1.36-.17" fill="#161514"/>
        <path d="M41.9,37.51s0-.04,0-.06c0-.1-.11-.21-.2-.21-.03,0-.1.04-.14.08s-.08.1-.08.13v.03c.13.02.27.03.4.03" fill="#161514"/>
        <path d="M64.15.17c-.06.09-.13.35-.16.58-.07.52-.2,4.05-.21,5.69,0,1.41.03,1.55.45,1.55.2,0,.25-.03.33-.23.14-.33.28-2.46.4-6.12.04-1.23.04-1.27-.11-1.45-.2-.25-.54-.26-.7-.02" fill="#161514"/>
        <path d="M68.8,3.88c-.38.42-2.3,3.49-2.39,3.82-.06.22.03.47.17.51.33.1.59-.18,1.74-1.82.93-1.34,1.33-2,1.33-2.19,0-.42-.56-.63-.84-.32" fill="#161514"/>
        <path d="M58.97,4.36c-.23.23-.19.41.28,1.22.76,1.3,1.79,2.71,2.1,2.88.19.1.44.02.49-.16.06-.22-.05-.44-.73-1.54-.34-.55-.76-1.25-.94-1.55-.57-.98-.85-1.18-1.2-.84" fill="#161514"/>
        <path d="M39.79,13.1c.42.48,1.24,1.03,1.74,1.17.2.06.39.12.41.13.03.02-.1.21-.28.43-.34.42-.75,1.17-.97,1.73-.06.17-.13.31-.15.31s-.23-.18-.47-.39c-.74-.66-1.34-1.03-2.09-1.3-.1-.04-.06-.12.28-.54.36-.45.71-1.06.97-1.71.05-.13.12-.25.15-.25s.21.18.41.4M38.97,9.66c-.19.11-.22.18-.27.58-.13,1.23-.2,1.63-.37,2.17-.37,1.16-.99,1.94-1.97,2.51-.51.3-.75.52-.75.69,0,.04.05.15.12.23.1.13.22.15.82.2.39.03.89.12,1.12.2,1.31.43,2.33,1.47,2.76,2.79.12.37.41.73.59.73.05,0,.19-.07.29-.16l.19-.16-.02-.86c-.02-1.01.08-1.54.42-2.25.28-.58.89-1.25,1.55-1.71.51-.36.65-.57.57-.89-.06-.23-.24-.28-1.23-.35-1.09-.07-1.41-.19-2.03-.75-.58-.53-.84-1.07-1.07-2.23-.15-.75-.34-.95-.72-.74" fill="#161514"/>
        <path d="M66.88,16.43c-.96,0-1.54.18-2.42.73-.17.11-.31.19-.33.18v1.44c.1-.08.23-.18.39-.32,1.07-.92,2.33-1.27,3.16-.88.19.09.41.25.49.37.14.2.15.23.05.43-.06.13-.31.37-.59.58-.66.49-1.22,1.1-1.41,1.52-.09.19-.27.71-.4,1.15-.44,1.44-.8,2.01-1.71,2.72v1.72c.08-.43.17-.49.85-1.01.82-.63,1.37-1.55,1.89-3.17.38-1.18.55-1.44,1.28-1.96.43-.3.9-.78,1.04-1.05.09-.17.13-.38.13-.67,0-.36-.03-.48-.22-.78-.42-.69-1.09-1-2.2-1Z" fill="#161514"/>
        <path d="M62.49,12.1c-.99-1.89-2.24-2.37-3.28-1.24-.16.17-.35.45-.42.62-.07.17-.15.32-.16.34-.01.02-.19-.15-.39-.38-.92-1.02-2.21-1.15-2.87-.29-.12.15-.25.41-.29.56-.12.41-.09,1.08.07,1.58.08.24.14.47.14.52s-.14-.02-.31-.16c-.52-.4-.98-.58-1.55-.61-.47-.02-.52-.01-.81.18-.43.29-.62.68-.62,1.3,0,.45.02.5.71,1.93.88,1.83,1.25,2.75,1.54,3.85.13.48.33,1.27.46,1.77.32,1.24.57,1.84,1.05,2.58l.41.63-.04.57c-.08,1.1-.42,2.61-.87,3.91-.34.97-.41,1.09-.58,1.04-.38-.11-1.08-.24-1.67-.3-.9-.1-4.95-.16-6.18-.08-.55.03-1.03.05-1.07.03-.04-.01-.18-.18-.32-.38-.37-.53-1.87-1.95-2.51-2.38-4.03-2.68-9.55-2.28-13.97,1.01-.75.56-1.84,1.59-2.46,2.33-1.51,1.8-2.71,4.33-3.1,6.49-.11.63-.14,1.08-.15,2.25,0,1.56.06,2.1.38,3.2l.16.54-.17.35c-.3.63-.75,1.76-1.05,2.62-.16.46-.32.87-.36.9-.04.04-.75.24-1.59.45-2.52.64-4.2,1.26-6.57,2.43-4.55,2.24-8.62,5.37-11.3,8.7-.58.72-1.45,2.06-1.81,2.79-.66,1.32-.94,2.41-.94,3.59,0,1.55.73,2.78,2.17,3.6.27.15.69.47.96.71.75.68,1.57.97,2.37.83.21-.04.41-.05.45-.03.04.02.27.17.51.33.56.36.96.49,1.52.49.91,0,1.53-.33,2.16-1.14.21-.27.43-.51.5-.53.06-.02.28-.09.48-.15.82-.24,1.49-.95,1.8-1.92.23-.71.21-1.5-.07-2.93-.2-1.02-.22-1.21-.19-2,.02-.68.06-.95.18-1.25.65-1.69,3.19-3.78,6.7-5.52,1.34-.66,1.97-.94,2.09-.89.06.02.13.32.2.82.48,3.32,1.92,6.7,4.09,9.59.68.9,2.55,2.84,3.5,3.62,2.2,1.81,5,3.29,7.85,4.15.37.11.7.24.72.27.06.1-.09.49-.26.65-.64.61-2.99.72-4.51.21-.82-.28-2.03-.91-2.71-1.42-.61-.46-.67-.51-5.42-4.78-4.56-4.1-4.62-4.15-5.09-4.06-.43.08-.64.36-4.81,6.45-5.92,8.65-6.6,9.69-6.6,10,0,.59,1.19,1.62,2.77,2.42.74.37,1.26.57,2.03.77.35.09.61.2.64.26.03.06.11.63.17,1.27.22,2.36.91,9.61,1.16,12.23.14,1.48.32,3.39.4,4.25.15,1.67.2,1.94.42,2.09.18.12,1.22.14,2.25.03,4.49-.46,7.93-3.41,8.79-7.54.17-.83.2-2.42.07-3.51-.06-.51-.1-.93-.09-.94s.62-.14,1.35-.29c4.12-.84,7.71-2.36,10.59-4.49,1.52-1.13,2.92-2.48,4.08-3.93.5-.63.97-1.08,1.42-1.35.82-.49,1.73-1.15,2.35-1.69,1.29-1.13,2.55-2.82,3.29-4.41.3-.64.82-2.11.96-2.67.05-.19.12-.38.17-.42.05-.04.59-.33,1.21-.65,1.48-.76,2.38-1.31,3.31-2.01,6.13-4.57,9.11-12.01,7.84-19.53-.51-3.01-1.64-5.77-3.48-8.46-.54-.78-.84-1.17-1.84-2.35l-.28-.33.47-.53c.55-.62,1.55-2.1,2.09-3.08.86-1.57,1.68-3.5,2.39-5.64.21-.63.38-1.08.39-1.13.27-.94.04-.12.34-1.29l.14-.63s.15-.93.15-.95l.02-1.62c-.29.22-.71.58-.78.67-.08.11-.27.77-.49,1.66-1.02,4.19-2.32,7.44-3.98,9.93-.54.81-1.35,1.82-1.46,1.82-.04,0-.17-.07-.27-.15-.34-.26-1.45-1.2-1.47-1.24,0-.02.13-.25.32-.51.67-.92.99-1.75.99-2.6s-.26-1.44-.87-2.12c-.18-.2-.32-.39-.32-.44s.18-.58.39-1.18c.62-1.73,1-3.48,1-4.57,0-.51-.04-.62-.76-1.85-.35-.61-.59-1.3-.93-2.72-.48-2.01-.72-2.66-1.76-4.9-.37-.79-.67-1.53-.67-1.63,0-.11.06-.25.15-.33.14-.13.17-.13.4-.05.36.12.82.49,1.45,1.14,1.03,1.07,1.4,1.79,1.63,3.17.11.65.22.84.51.84.74,0,.46-2.2-.67-5.13-.59-1.54-.65-1.93-.34-2.33.4-.51,1.27.1,1.95,1.35.55,1.01.79,2.03.94,3.9.1,1.25.14,1.45.36,1.52.2.06.38-.07.5-.37.2-.49.12-2.15-.17-3.82-.18-1.04-.2-2.24-.04-2.53.12-.22.48-.56.59-.56.04,0,.16.04.28.09v.02c.31.14.62.54.97,1.27.57,1.21,1.26,3.58,1.49,5.15.12.8.21,1.02.46,1.14.14.06.28.03.53-.15l.02-1.53c-.14-.4-.68-2.67-.67-2.88M47.18,31.37c.45-.03,2.03-.05,2.16-.02-.06.04-.38.25-.77.49-1.16.69-1.91,1.29-3.42,2.71-1.52,1.43-1.81,1.67-2.21,1.88-.8.41-1.97.2-5.56-.97-1.61-.53-2.43-.83-2.43-.9,0-.09,1.28-.66,2.43-1.09,3.19-1.19,6.29-1.86,9.8-2.1ZM49.84,35.71c.78.63,2.33,2.17,2.33,2.33,0,.18-1.88.54-4.45.85-1.1.13-1.54.15-4.32.15-3.08,0-3.57-.02-5.55-.27-.91-.11-1.03-.14-1.03-.24,0-.09.51-.8.94-1.32.37-.45.47-.47,1.08-.26,1.04.36,2.66.67,3.45.68.88,0,1.26-.21,2.51-1.37,1.91-1.78,2.34-2.16,2.45-2.16.06,0,.27.07.46.16h-.02c.49.23,1.34.8,2.15,1.45ZM51.38,67.26c-2.99.64-5.46.85-9.18.78-2.74-.05-4.82-.26-5.15-.52-.09-.07-.32-.36-.52-.64-1.14-1.61-2.5-4.56-3.1-6.68-.24-.85-.26-1.06-.09-1.01.33.1,2.61.53,3.59.67,6.47.94,13.4.48,18.66-1.26.48-.16.89-.26.92-.23.04.03.01.24-.06.5-.27,1.03-.97,3.05-1.38,3.97-.5,1.12-1.2,2.44-1.81,3.37-.49.75-.5.76-1.88,1.05ZM51.76,68.25c0,.19-2.35,2.57-3.32,3.36-.71.58-1.35,1.01-1.64,1.09-.39.11-1.72.26-2.8.31l-.98.04-.89-.61c-.49-.34-1.13-.8-1.43-1.03-.9-.71-2.73-2.51-2.62-2.59.01-.01.45.02.96.07,2.28.22,6.71.18,9-.08,1-.11,3.29-.48,3.48-.56.19-.08.24-.08.24,0ZM56.33,57.28c-.91.38-2.96.95-4.46,1.26-2.59.52-4.62.73-7.58.79-3.68.06-6.43-.19-9.91-.91-1.31-.27-1.43-.32-1.49-.56-.12-.44-.33-2.12-.39-3.06-.3-4.84.54-9.17,2.59-13.36.32-.66.68-1.34.79-1.51.24-.37.25-.37,1.34-.22,1.67.23,3.46.33,6.17.33s3.59-.04,5.57-.3c1.12-.14,2.73-.45,3.4-.65.57-.17.56-.17.78.11h0c.47.59,1.19,1.79,1.7,2.81,1.11,2.23,1.84,4.67,2.22,7.44.17,1.26.17,4.94,0,6.21-.19,1.42-.18,1.39-.73,1.62ZM36.26,36.14c.41.14.75.27.75.31s-.26.41-.57.83c-.31.43-.62.85-.68.94-.1.14-.16.16-.41.15-.94-.05-4.45-1.16-4.45-1.41,0-.07,1.68-1.19,2.32-1.54l.41-.23.95.36c.52.19,1.29.47,1.69.6h-.01ZM53.34,37.76l-.3-.35c-.17-.19-.65-.71-1.07-1.14l-.77-.79.41.2c.23.11.7.37,1.06.58.88.5,1.55.96,1.55,1.03,0,.04-.2.15-.44.27l-.44.2ZM29.18,29.82c1.65-1.33,3.78-2.33,5.75-2.7,1.15-.21,1.71-.24,2.88-.14h-.01c2.16.2,3.94.93,5.52,2.27.4.34,1.2,1.23,1.2,1.33,0,.03-.29.1-.65.16-3,.52-5.82,1.33-8.15,2.34-.55.24-1.11.48-1.24.53l-.25.1-.45-.41c-.91-.83-1.95-1.42-3.02-1.72-.31-.08-.66-.11-1.35-.11-.88,0-.96.01-1.61.24-.37.13-.68.21-.68.17,0-.1,1.53-1.63,2.06-2.06ZM23.43,47.13c.08-.4.67-1.79,1.3-3.09,1.04-2.11,1.93-3.36,3.5-4.89.72-.71,1.64-1.52,1.71-1.52.01,0,.4.18.86.4h-.01c1.1.51,2.49.96,4.08,1.29.14.03.11.11-.57,1.48-.39.8-.87,1.83-1.06,2.31-.93,2.36-1.53,4.99-1.75,7.71-.11,1.35-.04,4.43.14,5.75.07.56.14,1.05.14,1.08,0,.26-3.22-.92-5.02-1.84-1.09-.56-2.4-1.31-2.69-1.55l-.17-.13.36-.11c1.46-.43,3.07-1.31,3.78-2.06.87-.92,1-2.05.35-3-.57-.83-1.82-1.39-3.46-1.56-.37-.04-.86-.07-1.1-.07h-.43l.04-.2ZM14.55,57.78c-.74.6-2.06,1.96-2.32,2.39-.71,1.2-.82,2.25-.48,4.4.29,1.81.31,2.11.14,2.63-.07.24-.22.56-.32.71-.19.28-.58.61-.71.61-.05,0-.1-.21-.13-.58-.04-.56-.04-.59.11-.69.44-.33.52-.41.52-.52,0-.2-.24-.39-.49-.39-.63,0-1.68.7-2.19,1.46-.22.33-.11.77.22.88.16.05.44-.13.6-.39q.15-.24.21-.09c.07.2-.1.87-.31,1.24-.47.8-1.37,1.1-2.14.7-.34-.17-.86-.74-1.02-1.1-.07-.16-.17-.6-.22-.98-.08-.56-.12-.71-.24-.81-.19-.15-.34-.15-.55.02-.16.13-.17.18-.17.65,0,.28.05.72.1.98.14.67.15.65-.27.61-1.05-.11-1.7-1.08-1.69-2.52,0-.74-.03-.85-.32-.97-.43-.18-.67.21-.67,1.09,0,.65-.05.69-.4.33-.62-.67-.9-1.67-.75-2.72.62-4.31,6.47-10.11,13.74-13.63,4.23-2.05,8.09-2.97,10.63-2.54v-.02c1.02.17,1.9.64,2.14,1.15.21.43.19.88-.05,1.21-.64.88-1.53,1.36-4.33,2.35-3.73,1.32-6.36,2.71-8.64,4.54ZM24.16,60.38c-.69-1.65-1.31-3.98-1.41-5.31-.05-.65-.09-.65.9.04h0c1.93,1.34,3.91,2.28,6.9,3.27.74.25,1.39.49,1.44.54s.11.2.14.34c.13.71.85,2.94,1.29,3.97.52,1.23,1.47,3.05,1.95,3.74.11.16.18.3.16.33-.11.11-3.07-.65-4.58-1.18-1.84-.64-4.21-1.69-4.68-2.09-.45-.37-1.51-2.21-2.11-3.65ZM37.35,72.14c-1.28-.39-1.97-.66-3.3-1.32-2.07-1.02-3.71-2.19-5.44-3.88-.83-.81-1.06-1.08-.83-.99.05.02.49.21.98.41h.01c1.81.76,4.04,1.43,6.41,1.93.61.13,1.17.26,1.23.3.06.03.23.21.37.38.83,1.02,2.45,2.6,3.56,3.46.45.35.47.38.31.4-.26.03-2.4-.42-3.3-.69ZM22.88,79.04l.6.41c.33.23.97.63,1.42.9.45.27.8.5.79.51-.01.02-2.02.19-3.79.32l-.53.04.25-.29c.4-.47.91-1.2,1.09-1.55l.17-.34ZM11.13,81.68c-.1,0-.91-.57-1.29-.91-.29-.26-.3-.28-.22-.45.05-.1.6-.93,1.23-1.85,1.15-1.68,7.12-10.44,8.28-12.16.73-1.08.92-1.32,1.04-1.3.05.01.42.32.83.68.53.47.73.69.71.77-.02.06-1.31,1.95-2.88,4.19-3.08,4.41-6.44,9.25-7.17,10.35-.25.37-.49.68-.53.68ZM13.95,82.59c0,.13,0,.23-.02.23-.22,0-1.77-.59-1.77-.67,0-.22.51-1,2.85-4.35,1.25-1.79,1.9-2.69,1.94-2.69.06,0,.25.22.5.49v-.02c.86.9,1.45,1.86,1.83,2.97.2.58.22.71.24,1.63.01.55,0,1.03-.03,1.08-.04.05-.61.13-1.62.22-2.4.21-3.29.32-3.55.43-.25.11-.37.31-.37.68ZM17.63,102.85l-.74.04-.04-.16c-.06-.25-.26-2.25-.91-9.03-.33-3.46-.69-7.16-.79-8.24-.11-1.08-.21-2.13-.24-2.34l-.04-.38.49-.05c.27-.03.74-.07,1.05-.1.31-.03.59-.05.61-.06.03,0,.06.12.08.27v.02c.02.16.08.76.14,1.35.15,1.5.87,7.57,1.54,12.88.46,3.67.6,4.6.73,5.01.09.27.16.51.14.52-.06.06-1.34.23-2.02.27ZM25.88,97.17c-.51,1.49-1.8,3.18-3.06,4.02-.55.37-1.81,1.01-1.97,1.01s-.36-.27-.48-.65c-.14-.44-.75-4.89-1.06-7.85-.05-.46-.08-.85-.06-.88.03-.05.18-.04,1.55.09,2.22.23,4.06,1.14,4.96,2.47.43.64.45.85.12,1.79ZM27.96,80.04c-.17.25-.36.47-.41.49-.12.05-2.02-1.03-2.02-1.15s.16-.34,1.62-2.25c.72-.95,1.61-2.11,1.96-2.57.35-.47.66-.85.69-.85s.39.2.8.45h0c.41.25.85.49.96.54l.21.09-.21.31c-.11.17-.9,1.25-1.74,2.4-.84,1.15-1.68,2.3-1.85,2.54ZM28.84,80.41c.31-.41,3.15-4.27,3.48-4.73.17-.25.35-.45.38-.45s.3.06.58.13c.88.22,1.57.29,2.58.25.52-.02.95-.02.95,0,0,.07-.68.86-1.15,1.34-1.2,1.23-2.62,2.2-4.24,2.9-.76.33-1.91.68-2.43.75l-.32.04.17-.23ZM32.74,89.31c-.56.21-1.77.59-2.29.73l-.48.13-.04-.24c-.02-.13-.15-1.02-.3-1.97-.14-.95-.43-2.73-.63-3.95-.2-1.22-.34-2.24-.32-2.27.03-.02.43-.14.89-.26.47-.12,1.09-.3,1.4-.4.3-.1.57-.17.6-.14s.25,1.15.49,2.49c.24,1.34.57,3.13.73,3.96.16.83.3,1.57.3,1.65,0,.11-.08.17-.35.27ZM42.23,82.72c-1.06,1.31-3.24,3.27-4.65,4.19-.76.49-2.3,1.34-2.96,1.64l-.56.25-.05-.15c-.03-.08-.18-.94-.35-1.91-.17-.97-.49-2.74-.71-3.94-.22-1.2-.39-2.22-.37-2.27.02-.05.36-.28.76-.52,1.14-.67,1.98-1.33,2.98-2.34.98-.99,1.5-1.68,2.12-2.86.36-.68.63-1.16.65-1.16,0,0,.42.06.91.13h0c1.85.26,4.22.31,5.78.12.3-.04.56-.05.58-.03.05.05-.29,1.33-.65,2.44-.71,2.17-2.06,4.64-3.48,6.41ZM49.27,75.4c-.81,1.67-1.86,3-3.4,4.32-.74.63-.78.65-.58.19.09-.2.25-.54.36-.76.52-1.03,1.14-2.8,1.55-4.41l.27-1.06,1.16-.31c.64-.17,1.21-.32,1.26-.35.17-.07.2-.05.2.13h.01c0,.29-.38,1.33-.83,2.25ZM58.47,66.21c-.59.76-2.26,2.27-3.49,3.15-1.15.82-2.83,1.72-4.35,2.32-1.22.48-1.22.49-.03-.71.94-.96,1.67-1.78,2.51-2.8.24-.3.28-.31,1.32-.65,1.22-.39,2.67-.93,3.55-1.32.33-.15.62-.27.65-.27s-.04.12-.16.28ZM63,55.38v.02c-.32,2.84-.91,4.84-2.08,7.17-.62,1.22-.84,1.44-2.07,2.07-1.01.52-2.24,1.05-3.39,1.46-.89.32-1.1.38-1.1.28,0-.04.23-.48.5-.97,1.1-1.97,1.94-4.11,2.59-6.6l.25-.95,1-.5c1.67-.84,2.86-1.55,3.85-2.33.25-.2.47-.34.49-.33.02.02,0,.32-.04.68ZM60.2,43.59c1.52,2.58,2.42,5.23,2.75,8.18.16,1.4.16,1.39-.25,1.77-.96.91-2.43,1.92-3.81,2.63-.49.25-.91.45-.92.43,0-.02.02-.43.07-.92.15-1.32.2-3.69.11-5.1-.24-3.86-1.46-7.67-3.5-10.96-.32-.51-.58-.95-.58-.98,0-.06,1-.62,1.12-.62.04,0,.23.11.41.26,1.51,1.19,3.57,3.57,4.6,5.31ZM55.85,33.24c.18.53.11,1.24-.16,1.81-.25.53-.63,1.05-.84,1.17-.14.07-.23.04-.84-.33-1.51-.92-3.2-1.71-4.88-2.3-.49-.17-.9-.33-.9-.36s.23-.18.51-.34c1.81-1.05,2.74-1.34,4.07-1.28.42.02.94.08,1.16.14h.02c.91.24,1.64.83,1.86,1.49Z" fill="#161514"/>
        <path d="M12.11,34.62c.41.58,1.15,1.31,1.74,1.68.38.25,1.34.65,1.88.79l.28.07-.33.41c-.4.5-1,1.69-1.18,2.37-.07.27-.16.72-.18.98-.03.36-.07.48-.14.48-.05,0-.28-.17-.51-.37-1.14-1.04-2.54-1.66-4.03-1.78-.27-.02-.5-.05-.52-.07-.02,0,.15-.22.37-.46.5-.53.92-1.12,1.27-1.77.28-.52.82-2.05.9-2.57.03-.15.06-.28.07-.28s.18.23.38.52M11.22,31.11c-.16.1-.24.4-.32,1.29-.09.99-.17,1.52-.34,2.18-.59,2.33-1.68,3.73-3.56,4.6-.36.17-.73.37-.81.45-.19.18-.19.39,0,.56.12.11.22.12.78.09.35-.02,1.17-.03,1.8-.03.95,0,1.27.03,1.74.15,1.92.47,3.14,1.63,3.87,3.66.31.87.53,1.13.86,1.05.3-.08.34-.34.18-1.32-.15-.96-.18-2.21-.07-3,.21-1.48,1-2.72,2.19-3.44.57-.35.77-.57.71-.82-.02-.09-.1-.2-.18-.24s-.58-.1-1.11-.14c-1.07-.07-1.48-.16-2.13-.49-1.44-.73-2.27-1.83-2.75-3.65-.13-.47-.27-.88-.32-.92-.12-.08-.39-.07-.53,0" fill="#161514"/>
        <path d="M33.79,91.42c-.16.16-.1.4.29,1.19.82,1.66,5.76,10.67,5.97,10.9.28.3.82.15.82-.23,0-.08-.14-.42-.31-.76-.6-1.2-5.03-9.11-5.81-10.37-.53-.86-.71-.99-.96-.74" fill="#161514"/>
        <path d="M38.29,93.05c-.12.12-.1.33.09.86.42,1.18,4.2,9.29,4.46,9.57.23.25.75.06.75-.27,0-.11-1.13-2.59-2.24-4.92-.18-.38-.65-1.37-1.04-2.19-.81-1.71-1.39-2.82-1.57-3-.15-.15-.33-.17-.45-.05" fill="#161514"/>
        <path d="M49.84,41.55c-.64.08-1.45.47-1.7.82-.12.17-.12.45-.02.56.13.13.39.09.98-.15.45-.18.66-.23,1-.23.54,0,.79.08,1.26.41.43.3.6.32.83.1.21-.2.21-.35,0-.64-.4-.6-1.42-.97-2.37-.85" fill="#161514"/>
        <path d="M44.02,41.83c-.84.21-1.87,1.02-2.24,1.77-.22.43-.23.6-.06.8.17.21.4.14.72-.22,1.13-1.26,1.72-1.52,2.87-1.27l.54.12.17-.16c.21-.2.22-.52,0-.71-.32-.29-1.44-.47-2.01-.33" fill="#161514"/>
        <path d="M49.08,50.81c.6.18.89.67.63,1.07-.22.35-.67.52-1.35.52-.53,0-.59,0-.86-.2-.37-.26-.45-.46-.29-.78.13-.27.42-.48.85-.62.37-.12.62-.12,1.02,0M46.15,45.19c.08.03.16.06.23.1.19.12.36.31.43.52.05.16-.04.13-.16.11-.11-.02-.22-.03-.32-.03-.42,0-.85.2-1.1.56-.52.76-.31,1.66.48,2.13.37.22.97.25,1.32.06.13-.07.24-.1.27-.08.07.07-.12.84-.3,1.22-.23.5-.71.98-1.03,1.04-.44.08-.71-.02-1.08-.39-.53-.53-.72-1.05-.75-2.11-.02-.46,0-1.01.04-1.22.15-.8.63-1.57,1.15-1.82.16-.08.31-.15.49-.14.11,0,.22.02.33.05M49.89,45.02c.22.11.44.35.37.39-.03.02-.21.08-.4.14-.49.16-.85.56-.95,1.06-.12.6,0,.97.48,1.42.33.31.68.4,1.26.33l.33-.04-.03.26c-.08.59-.64,1.47-.94,1.46-.08,0-.33-.06-.54-.13-.22-.07-.61-.15-.88-.17-.27-.03-.48-.07-.48-.1s.05-.26.11-.51c.08-.35.1-.74.08-1.68-.02-1.16,0-1.25.13-1.56.35-.76.96-1.13,1.46-.87M49.13,44c-.36.06-.76.34-1.18.82l-.34.38-.39-.37c-.51-.48-.82-.62-1.42-.62-.7,0-1.05.14-1.56.65-.8.81-1.13,1.71-1.13,3.17,0,1.38.31,2.32,1.02,3.07.45.48.87.68,1.5.74l.49.04.09.27c.29.86,1.51,1.46,2.63,1.28.8-.13,1.42-.53,1.78-1.14.19-.32.2-.38.18-.88l-.03-.53.33-.37c.68-.76.96-1.69.9-3.05-.06-1.31-.37-2.17-1.02-2.84-.52-.53-1.15-.74-1.86-.62" fill="#161514"/>
        <path d="M41.46,50.53c-.07.12-.13.25-.13.28,0,.17-.41.89-.6,1.08-.48.45-.97.52-1.95.26-.63-.16-.77-.15-.9.09-.18.33.15.69.84.94.32.12.53.14,1.17.13.74,0,.78,0,.86.14.13.24.97,1.09,1.6,1.62.95.8,1.96,1.32,3.24,1.68.57.16.74.18,1.76.17,1.3,0,1.68-.08,2.54-.5.6-.29,1.25-.83,1.31-1.1.06-.25-.07-.43-.29-.43-.11,0-.53.17-.94.38-.88.45-1.45.61-2.31.66-1.95.1-4.27-.99-5.76-2.72l-.41-.47.29-.39c.36-.49.56-1.02.56-1.48,0-.43-.12-.57-.48-.57-.21,0-.27.04-.38.22" fill="#161514"/>
      </g>
    </g>
  </g>
</svg>