<?xml version="1.0" encoding="UTF-8"?>
<svg id="Layer_2" data-name="Layer 2" xmlns="http://www.w3.org/2000/svg" viewBox="0 0 512 442.39">
  <g id="Layer_1-2" data-name="Layer 1">
    <g id="Generative_Object" data-name="Generative Object">
      <path d="M187.24,1.26c.13.11-.33,1.2,1.06,3.17.1.14-.07,1.27,1.06,3.17,7.54,20.76,18.49,33.53,40.2,40.2.11.03-.1.52,2.12,1.06,1.76.57,2.59.66,4.23,1.06,1.7.27,3.3.86,5.29,1.06,10.55,1.54,20.12,1.55,30.68,0,2.02-.2,3.53-.75,5.29-1.06,1.28-.32,2.08-.7,3.17-1.06,1.21-.39,1.86-.53,3.17-1.06,22.27-7.03,29.74-18.27,39.14-38.08.86-1.77.77-2.56,1.06-3.17.95-2.14.91-4.07,1.06-4.23.5-.56,1.23-.76,1.59-2.12,7.88.39,15.95-.53,23.8,0,2.11.17,5.13.76,7.4,1.06,1.86.24,4.42.72,6.35,1.06.73.13,2.81.76,4.23,1.06,1.21.25,2.93.74,4.23,1.06.38.1,2.04.73,3.17,1.06.87.25,2.19.74,3.17,1.06s2.21.71,3.17,1.06c.11.04.78.56,2.12,1.06,51.4,22.93,85.5,80.72,128,116.36l-88.33,86.74c-2.6.17-13.97-21.07-15.34-24.33-.32-.77-.61-1.99-1.06-3.17-.35-.92-.73-2.19-1.06-3.17-.39-1.17-.69-2.88-1.06-4.23-.34-1.4-1.02-3.01-1.06-3.17-.32-1.61-.82-3.77-1.06-5.29-.35-2.22-.84-5.26-1.06-7.4-.58-7.79-.58-19.71,0-27.5.21-2.15.71-5.18,1.06-7.4.24-1.53.74-3.66,1.06-5.29.03-.16.72-1.72,1.06-3.17.36-1.36.67-3.02,1.06-4.23.3-.95.72-2.24,1.06-3.17.38-1.06.69-2.27,1.06-3.17,3.19-7.9,9.89-19.94,14.81-26.98,3.78-5.4,21.55-18.4,14.28-22.74-6.48-3.87-22.86,15.97-26.98,21.69-6.68,9.28-11.3,19.45-14.81,30.15-.8,2.13-.67,3.04-1.06,4.23-.35,1.07-.72,2-1.06,3.17-.37,1.45-.72,2.73-1.06,4.23-.45,1.93-.72,3.34-1.06,5.29-.39,2.19-.75,4.09-1.06,6.35-.38,3.29-.9,6.1-1.06,9.52-.23,4.54-.18,7.13,0,11.64.04,3.84,1.03,8.13,1.06,11.64.1,2.76,1.01,6.1,1.06,8.46.38,89.54.15,179.15-.53,268.69H121.12c-.67-89.54-.93-179.15-.53-268.69.05-2.36.97-5.69,1.06-8.46.03-3.89,1.01-8.5,1.06-12.69.15-4.06.16-6.51,0-10.58-.15-3.78-.65-6.91-1.06-10.58-.3-2.28-.65-4.12-1.06-6.35-.33-1.96-.61-3.36-1.06-5.29-.34-1.5-.69-2.78-1.06-4.23-.34-1.18-.7-2.1-1.06-3.17-.38-1.13-.62-2.01-1.06-3.17-.38-1.03-.51-1.81-1.06-3.17-2.67-7.26-20.56-43.88-29.09-42.31-12.47,2.29,3.59,16.81,5.82,20.63,4.12,7.06,8.5,15.23,11.64,22.74.52,1.46,1.02,2,1.06,2.12.32.99.79,2.27,1.06,3.17.37,1.25.73,2.92,1.06,4.23s.81,3.03,1.06,4.23c.29,1.39.95,3.58,1.06,4.23.33,1.97.81,4.45,1.06,6.35.36,3.5.96,8.26,1.06,11.64.09,2.78.09,5.68,0,8.46-.1,3.36-.68,8.17-1.06,11.64-.24,1.85-.7,4.46-1.06,6.35-.18.97-.76,2.96-1.06,4.23s-.7,3.01-1.06,4.23c-.26.88-.74,2.2-1.06,3.17s-.71,2.25-1.06,3.17c-.42,1.13-.71,2.33-1.06,3.17-1.39,3.37-12.57,24.52-15.34,24.33L0,126.09v-1.06C41.63,91.52,78.23,29.65,128,8.67c.68-.29,1.82-.53,3.17-1.06,1.45-.52,2-1.02,2.12-1.06,1.23-.4,2.82-.66,4.23-1.06.98-.32,2.3-.8,3.17-1.06,1.25-.36,2.94-.74,4.23-1.06s3.08-.83,4.23-1.06c1.9-.37,4.45-.79,6.35-1.06,2.48-.28,6.21-.97,8.46-1.06,3.93-.15,21.22-.72,23.27,1.06Z"/>
    </g>
  </g>
</svg>