<?xml version="1.0" encoding="UTF-8"?>
<svg id="Layer_2" data-name="Layer 2" xmlns="http://www.w3.org/2000/svg" viewBox="0 0 512 511.12">
  <g id="Layer_1-2" data-name="Layer 1">
    <g id="Generative_Object" data-name="Generative Object">
      <g>
        <path d="M250.92.04c199.99-3.59,328.75,216.12,223.43,388.4-95.22,155.75-319.52,165.29-426.13,16.58C-71.64,237.82,45.45,3.74,250.92.04Z"/>
        <g>
          <path d="M245.12,174.14c111.3-11.9,123.81,149.26,23.21,163.32-110.26,15.41-128.59-152.05-23.21-163.32Z" style="fill: #fff;"/>
          <path d="M250.92,233.83c34.6-5.17,34.79,42.83,6.63,44.77s-32.19-40.95-6.63-44.77Z"/>
        </g>
      </g>
      <g>
        <path d="M468.9,257.01c1.8,113.59-99.12,213.91-212.63,211.79-2.48-.02-4.48-2.06-4.46-4.54s2.06-4.48,4.54-4.46c108.57,2.02,205.26-94.1,203.54-202.73.34-2.74.83-13.58,5.2-11.39,1.3.69,2.62,1.81,3.2,2.79.65,2.23.58,6.01.61,8.54h0Z" style="fill: #fcfcfc;"/>
        <path d="M417.97,255.39c3.55,91.06-71.1,166.76-162.49,162.49" style="fill: none; stroke: #fcfcfc; stroke-linecap: round; stroke-linejoin: round; stroke-width: 9px;"/>
        <path d="M254.48,98.22c-62.79-3.25-123.76,37.48-145.85,96.16-7.55,19.29-11.04,40.13-10.31,60.85.09,2.48-1.85,4.57-4.34,4.66-2.48.09-4.57-1.85-4.66-4.34-4.04-91.7,73.45-170.64,165.5-166.32,2.17.05,5.89.03,7.61.45,2.97,1.07,3,6.66.24,8.42-.21.26-.55.09-.82.13-2.41-.03-4.99-.03-7.38,0h0Z" style="fill: #fcfcfc;"/>
        <path d="M47.39,256.22c-1.66-113.36,95.48-210.65,208.92-208.92" style="fill: none; stroke: #fcfcfc; stroke-linecap: round; stroke-linejoin: round; stroke-width: 9px;"/>
      </g>
    </g>
  </g>
</svg>