<?xml version="1.0" encoding="UTF-8"?>
<svg id="Layer_2" data-name="Layer 2" xmlns="http://www.w3.org/2000/svg" viewBox="0 0 512 451.01">
  <g id="Layer_1-2" data-name="Layer 1">
    <g id="Generative_Object" data-name="Generative Object">
      <g>
        <polygon points="1.12 0 509.2 0 512 447.09 506.96 451.01 0 449.89 1.12 0"/>
        <path d="M320.07,11.19l180.74,1.68-2.8,426.95-179.62-.56c186.28-56.75,222.82-308.51,48.68-406.8l-47-21.26Z" style="fill: #fff;"/>
        <path d="M190.25,10.07c1.47-.03,6.37-.96,4.48,2.24-48.99,10.57-96.29,44.71-124.78,85.61-88.56,127.15-22.82,299.19,123.1,341.33l-181.86.56L9.51,11.75c60.25-.67,120.5-.54,180.74-1.68Z" style="fill: #fff;"/>
        <g>
          <path d="M241.73,146.61c128.68-16.31,115.29,183.86-6.71,155.56-81.39-18.88-75.44-145.14,6.71-155.56Z" style="fill: #fff;"/>
          <path d="M251.8,207.04c26.61-3,27.65,34.19,5.6,36.93-22.59,2.8-28.27-34.38-5.6-36.93Z"/>
        </g>
      </g>
      <g>
        <path d="M416.19,240.64c-8.7,75.23-71.67,132.64-145.85,141.68" style="fill: none; stroke: #fdfdfd; stroke-linecap: round; stroke-linejoin: round; stroke-width: 10.07px;"/>
        <path d="M189.58,119.21c-28.99,15.5-47.79,45.75-54.58,77.47-.53,2.42-2.91,3.95-5.33,3.42-2.42-.53-3.95-2.91-3.42-5.33,3.72-17.05,10.47-33.53,20.37-48.07,9.87-14.52,23.1-26.98,38.71-35.38,2.17-1.24,4.5-2.81,6.84-3.4,3.77-.57,7.47,1.3,6.4,5.41-1.52,1.69-6.57,4.34-8.99,5.87h0Z" style="fill: #fdfdfd;"/>
        <path d="M180.57,73.93c-55.09,17.83-99.17,67.69-107.81,125.23" style="fill: none; stroke: #fdfdfd; stroke-linecap: round; stroke-linejoin: round; stroke-width: 8.95px;"/>
      </g>
    </g>
  </g>
</svg>